<svg width="51" height="51" viewBox="0 0 51 51" fill="none" xmlns="http://www.w3.org/2000/svg">
<path d="M8.36719 6.375C6.99345 6.375 5.67598 6.92072 4.7046 7.8921C3.73322 8.86348 3.1875 10.1809 3.1875 11.5547V31.875H4.02422C4.17084 33.362 4.72706 34.7278 5.57812 35.8594V39.8438H42.6328C44.0065 39.8438 45.324 39.298 46.2954 38.3267C47.2668 37.3553 47.8125 36.0378 47.8125 34.6641V11.5547C47.8125 10.1809 47.2668 8.86348 46.2954 7.8921C45.324 6.92072 44.0065 6.375 42.6328 6.375H8.36719Z" fill="url(#paint0_linear_1_4287)"/>
<path d="M12.75 17.5312C12.75 17.1086 12.9179 16.7032 13.2168 16.4043C13.5157 16.1054 13.9211 15.9375 14.3438 15.9375H36.6562C37.0789 15.9375 37.4843 16.1054 37.7832 16.4043C38.0821 16.7032 38.25 17.1086 38.25 17.5312C38.25 17.9539 38.0821 18.3593 37.7832 18.6582C37.4843 18.9571 37.0789 19.125 36.6562 19.125H14.3438C13.9211 19.125 13.5157 18.9571 13.2168 18.6582C12.9179 18.3593 12.75 17.9539 12.75 17.5312ZM27.0938 27.0938C26.6711 27.0938 26.2657 27.2617 25.9668 27.5605C25.6679 27.8594 25.5 28.2648 25.5 28.6875C25.5 29.1102 25.6679 29.5156 25.9668 29.8145C26.2657 30.1133 26.6711 30.2812 27.0938 30.2812H36.6562C37.0789 30.2812 37.4843 30.1133 37.7832 29.8145C38.0821 29.5156 38.25 29.1102 38.25 28.6875C38.25 28.2648 38.0821 27.8594 37.7832 27.5605C37.4843 27.2617 37.0789 27.0938 36.6562 27.0938H27.0938Z" fill="url(#paint1_linear_1_4287)" fill-opacity="0.9"/>
<path d="M19.125 34.8425C17.1177 36.5324 14.577 37.4572 11.9531 37.4531C9.32921 37.4572 6.78853 36.5324 4.78125 34.8425V46.2187C4.78132 46.5029 4.85735 46.7818 5.00147 47.0267C5.14559 47.2716 5.35255 47.4735 5.60093 47.6115C5.8493 47.7495 6.13006 47.8186 6.41411 47.8116C6.69817 47.8046 6.9752 47.7218 7.2165 47.5718L11.9531 44.6234L16.6898 47.5718C16.9312 47.7219 17.2083 47.8047 17.4925 47.8116C17.7767 47.8185 18.0576 47.7493 18.306 47.6111C18.5544 47.4729 18.7614 47.2708 18.9054 47.0257C19.0494 46.7806 19.1252 46.5014 19.125 46.2171V34.8425Z" fill="url(#paint2_radial_1_4287)"/>
<path d="M20.7188 31.0781C20.7188 33.4029 19.7952 35.6325 18.1514 37.2764C16.5075 38.9202 14.2779 39.8438 11.9531 39.8438C9.62834 39.8438 7.39877 38.9202 5.75489 37.2764C4.11102 35.6325 3.1875 33.4029 3.1875 31.0781C3.1875 28.7533 4.11102 26.5238 5.75489 24.8799C7.39877 23.236 9.62834 22.3125 11.9531 22.3125C14.2779 22.3125 16.5075 23.236 18.1514 24.8799C19.7952 26.5238 20.7188 28.7533 20.7188 31.0781Z" fill="url(#paint3_radial_1_4287)"/>
<defs>
<linearGradient id="paint0_linear_1_4287" x1="4.78125" y1="12.6512" x2="26.7208" y2="43.0424" gradientUnits="userSpaceOnUse">
<stop stop-color="#0FAFFF"/>
<stop offset="1" stop-color="#2764E7"/>
</linearGradient>
<linearGradient id="paint1_linear_1_4287" x1="49.725" y1="48.9281" x2="32.5189" y2="2.82253" gradientUnits="userSpaceOnUse">
<stop stop-color="#9DEAFF"/>
<stop offset="1" stop-color="white"/>
</linearGradient>
<radialGradient id="paint2_radial_1_4287" cx="0" cy="0" r="1" gradientUnits="userSpaceOnUse" gradientTransform="translate(11.9531 35.0625) rotate(90) scale(18.2022 28.1888)">
<stop stop-color="#163697"/>
<stop offset="1" stop-color="#29C3FF"/>
</radialGradient>
<radialGradient id="paint3_radial_1_4287" cx="0" cy="0" r="1" gradientUnits="userSpaceOnUse" gradientTransform="translate(-34.6919 -39.0471) rotate(56.615) scale(97.855 83.8083)">
<stop offset="0.772" stop-color="#FFCD0F"/>
<stop offset="0.991" stop-color="#E67505"/>
</radialGradient>
</defs>
</svg>
