<svg width="50" height="41" viewBox="0 0 50 41" fill="none" xmlns="http://www.w3.org/2000/svg">
<path d="M6.40412 11.2772C4.55834 13.4781 0 15.6636 0 19.5957C0 22.1717 0.236183 25.0826 4.54653 27.3782C7.98536 29.2088 7.45159 33.5314 7.45159 33.5314C7.61574 36.6695 10.2858 37.8989 13.4589 38.1462C16.632 38.3935 18.7553 35.8187 21.3593 38.3012C23.9632 40.7838 28.6361 42.9871 32.0796 38.0255C34.8182 34.0804 35.6082 32.4238 40.7995 32.1872C47.343 31.889 48.3385 24.5644 45.5055 21.4192C45.3649 21.2618 45.2232 21.1115 45.0827 20.9672C42.4103 18.2089 40.5397 17.7297 40.8597 12.7811C41.3321 5.31453 38.5097 1.75991 34.6009 0.581351C30.3791 -0.693057 26.0085 3.46741 22.598 2.21785C18.9372 0.877175 16.2293 -1.19359 12.1611 0.877175C8.2865 2.84144 8.25107 9.07504 6.40412 11.2772Z" fill="#F8B100" fill-opacity="0.2"/>
<path d="M23 4.125C23.0002 3.91292 22.9404 3.70509 22.8276 3.5255C22.7148 3.34591 22.5535 3.20186 22.3624 3.10997C22.1712 3.01809 21.958 2.9821 21.7473 3.00617C21.5366 3.03024 21.337 3.11338 21.1715 3.246C19.2065 4.8195 18.137 6.198 17.5745 7.398C17.1694 8.24858 16.9725 9.1833 17 10.125C17 11.544 17.7155 12.795 18.806 13.5375C18.5062 13.7907 18.2498 14.0911 18.047 14.427C17.333 15.582 17 17.3475 17 19.8825C17 22.4505 17.345 25.5345 17.9075 27.9975C18.1865 29.2215 18.533 30.351 18.9455 31.1985C19.151 31.62 19.4015 32.031 19.7105 32.3535C20.0195 32.67 20.495 33.0075 21.125 33.0075C21.755 33.0075 22.2305 32.67 22.538 32.3535C22.8511 32.0103 23.1091 31.6207 23.303 31.1985C23.717 30.3495 24.0635 29.2215 24.3425 27.996C24.9281 25.3302 25.2323 22.6103 25.25 19.881C25.25 17.346 24.917 15.582 24.203 14.427C24.0001 14.0911 23.7437 13.7907 23.444 13.5375C24.0005 13.1592 24.4561 12.6504 24.7709 12.0556C25.0857 11.4608 25.2501 10.798 25.25 10.125C25.25 8.7345 24.596 7.764 24.098 7.023L24.0545 6.9585C23.4695 6.087 23 5.37 23 4.125ZM19.25 10.125C19.25 9.678 19.25 9.126 19.613 8.3535C19.865 7.812 20.3165 7.125 21.131 6.297C21.4205 7.0725 21.8255 7.677 22.169 8.187L22.187 8.214C22.7225 9.0105 23 9.4665 23 10.125C23 10.6223 22.8024 11.0992 22.4508 11.4508C22.0992 11.8025 21.6222 12 21.125 12C20.6277 12 20.1508 11.8025 19.7991 11.4508C19.4475 11.0992 19.25 10.6223 19.25 10.125ZM19.25 19.8825C19.25 17.448 19.589 16.212 19.961 15.609C20.0741 15.4067 20.2435 15.2416 20.4485 15.1335C20.6612 15.0396 20.8927 14.9965 21.125 15.0075C21.425 15.0075 21.6395 15.054 21.8015 15.1335C21.9515 15.2055 22.1195 15.336 22.289 15.609C22.661 16.212 23 17.448 23 19.8825C23 22.284 22.673 25.2 22.1495 27.4965C21.8855 28.6515 21.5855 29.589 21.281 30.213C21.2326 30.3124 21.1805 30.4099 21.125 30.5055C21.0694 30.4099 21.0174 30.3124 20.969 30.213C20.6645 29.589 20.3645 28.65 20.1005 27.4965C19.5535 24.9949 19.2685 22.4431 19.25 19.8825ZM26.726 21.1155C27.4479 21.4328 28.2153 21.6343 29 21.7125V18.375C29 17.7348 29.1261 17.1009 29.371 16.5094C29.616 15.918 29.9751 15.3805 30.4278 14.9279C30.8805 14.4752 31.4179 14.1161 32.0094 13.8711C32.6008 13.6261 33.2348 13.5 33.875 13.5H37.2125C37.0893 12.2722 36.665 11.0938 35.9774 10.0692C35.2897 9.04462 34.3599 8.20553 33.2704 7.62633C32.1808 7.04712 30.9651 6.7457 29.7312 6.74878C28.4972 6.75187 27.2831 7.05936 26.1965 7.644C25.963 7.15152 25.688 6.67981 25.3745 6.234L25.2995 6.123L25.031 5.715C26.4599 4.92461 28.0645 4.50579 29.6975 4.49697C31.3305 4.48816 32.9395 4.88964 34.3769 5.66456C35.8143 6.43948 37.034 7.56302 37.9242 8.93207C38.8143 10.3011 39.3464 11.8718 39.4715 13.5H42.125C42.7652 13.5 43.3991 13.6261 43.9905 13.8711C44.582 14.1161 45.1194 14.4752 45.5721 14.9279C46.0248 15.3805 46.3839 15.918 46.6289 16.5094C46.8739 17.1009 47 17.7348 47 18.375V26.625C47 27.2652 46.8739 27.8991 46.6289 28.4906C46.3839 29.082 46.0248 29.6195 45.5721 30.0721C45.1194 30.5248 44.582 30.8839 43.9905 31.1289C43.3991 31.3739 42.7652 31.5 42.125 31.5H33.875C32.582 31.5 31.3421 30.9864 30.4278 30.0721C29.5136 29.1579 29 27.9179 29 26.625V23.9715C28.1714 23.9083 27.3542 23.7394 26.5685 23.469C26.6435 22.674 26.6975 21.882 26.726 21.1155ZM42.125 15.75H39.386C39.067 17.7933 38.1071 19.6825 36.6448 21.1448C35.1824 22.6072 33.2933 23.5671 31.25 23.886V26.625C31.25 28.074 32.426 29.25 33.875 29.25H42.125C42.8212 29.25 43.4888 28.9734 43.9811 28.4812C44.4734 27.9889 44.75 27.3212 44.75 26.625V18.375C44.75 17.6788 44.4734 17.0111 43.9811 16.5188C43.4888 16.0266 42.8212 15.75 42.125 15.75ZM31.25 21.6C32.6905 21.3042 34.0126 20.5923 35.0524 19.5525C36.0923 18.5126 36.8042 17.1905 37.1 15.75H33.875C33.1788 15.75 32.5111 16.0266 32.0188 16.5188C31.5265 17.0111 31.25 17.6788 31.25 18.375V21.6Z" fill="#F8B100"/>
</svg>
