<svg width="118" height="76" viewBox="0 0 118 76" fill="none" xmlns="http://www.w3.org/2000/svg">
<path fill-rule="evenodd" clip-rule="evenodd" d="M62.94 75.4C72.94 62.78 46.09 63.23 46.56 60.74C47.79 54.14 61.56 47.92 72.14 50.49C70.45 43.24 50.36 39.66 39.23 43.93L32.06 34.32C49.06 14.17 85.12 16.03 105.67 29.88C106.73 11.2 36.2 -3.17999 1.34 20.88L0 19.78C24 0.16 54.87 -0.869996 74 0.330004C89.73 1.33 119.7 9.08001 117.52 23.43L108.21 33.97C93.49 27.48 64.63 22.36 40.52 40.38C48.52 36.7 77.59 30.15 80.32 45.27L74.01 53.08C65.36 50.47 51.01 56.23 59.92 60.7C62.8486 62.0204 65.377 64.09 67.25 66.7C68.98 69.55 66.09 72.97 62.94 75.4Z" fill="#0A3E6E" fill-opacity="0.55"/>
</svg>
