<svg width="201" height="33" viewBox="0 0 201 33" fill="none" xmlns="http://www.w3.org/2000/svg">
<path d="M35.216 0.741577C28.551 0.741577 21.961 6.14658 20.488 12.8186C20.3213 13.5813 20.2275 14.3581 20.208 15.1386L27.587 24.6596C28.3384 24.8124 29.1033 24.8887 29.87 24.8876C36.534 24.8876 43.125 19.4826 44.598 12.8186C46.071 6.15458 41.878 0.741577 35.216 0.741577ZM40.246 12.8186C39.7174 14.9452 38.5154 16.844 36.8194 18.2317C35.1234 19.6194 33.0242 20.4215 30.835 20.5186C26.579 20.5186 23.898 17.0646 24.841 12.8186C25.3689 10.6936 26.5692 8.79598 28.263 7.40847C29.9569 6.02095 32.0537 5.21777 34.241 5.11858C38.492 5.11558 41.189 8.56158 40.246 12.8186Z" fill="white"/>
<path d="M82.0678 12.8185C82.8165 12.1816 83.4666 11.4372 83.9968 10.6095C84.5452 9.76434 84.938 8.82795 85.1569 7.84453C85.3666 6.94046 85.3867 6.00274 85.2159 5.09053C84.9566 3.81393 84.2475 2.6729 83.2177 1.87522C82.1878 1.07755 80.9057 0.676291 79.6049 0.744527H69.2289L68.2679 5.11553H78.6679C79.0071 5.10487 79.3441 5.17496 79.6509 5.32002C79.9578 5.46508 80.2258 5.68096 80.433 5.94988C80.6401 6.2188 80.7803 6.53307 80.8422 6.86682C80.9041 7.20056 80.8858 7.54423 80.7888 7.86953C80.5954 8.62424 80.1676 9.29813 79.5668 9.79426C78.9661 10.2904 78.2235 10.5832 77.4459 10.6305H67.0199L66.0479 14.9975H76.4529C76.7896 14.988 77.124 15.058 77.4286 15.2018C77.7333 15.3457 77.9998 15.5594 78.2064 15.8255C78.413 16.0916 78.5539 16.4027 78.6178 16.7336C78.6816 17.0644 78.6666 17.4056 78.5739 17.7295L77.1009 24.2685L76.9759 24.8205H81.3428L82.9258 17.6995C83.1334 16.7926 83.1511 15.8526 82.9779 14.9385C82.8283 14.1745 82.517 13.4513 82.0648 12.8175L82.0678 12.8185Z" fill="white"/>
<path d="M157.758 0.741577H140.136L139.164 5.14158H143.531L139.201 24.6706H143.601L147.92 5.14158H156.786L157.758 0.741577Z" fill="white"/>
<path d="M12.7118 0.962577C9.72472 1.55389 6.97124 2.99329 4.78081 5.10858C3.17327 6.62616 1.89925 8.46176 1.03981 10.4986C0.892812 10.8376 0.767812 11.1836 0.649812 11.5296C0.652869 11.5508 0.651131 11.5724 0.644727 11.5928C0.638323 11.6132 0.627417 11.6319 0.612812 11.6476C0.485411 12.0266 0.379575 12.4126 0.295812 12.8036C0.207812 13.2036 0.148812 13.5916 0.095812 13.9966V14.1146C0.0510041 14.4493 0.0229691 14.7861 0.011812 15.1236C-0.0689064 17.0114 0.401932 18.8819 1.36681 20.5066C2.03116 21.5827 2.91368 22.5077 3.95745 23.2218C5.00123 23.9359 6.18309 24.4233 7.42681 24.6526C8.15426 24.7975 8.89406 24.8715 9.63581 24.8736H13.8358L14.8008 20.4996H10.6008C10.0696 20.4981 9.54007 20.4384 9.02181 20.3216C8.80115 20.2682 8.58781 20.2082 8.38181 20.1416C7.6476 19.8942 6.96837 19.5067 6.38181 19.0006C5.88133 18.5376 5.4675 17.989 5.15981 17.3806C4.94543 16.9463 4.78008 16.4895 4.66681 16.0186C4.59602 15.7222 4.54425 15.4216 4.51181 15.1186C4.51181 14.9636 4.51181 14.8096 4.51181 14.6476V13.5036C4.52546 13.2687 4.56743 13.0364 4.63681 12.8116C4.69581 12.5756 4.74681 12.3476 4.82081 12.1196C4.83866 12.0167 4.8724 11.9171 4.92081 11.8246C4.95781 11.7246 5.00181 11.5966 5.04581 11.4856C5.08981 11.3746 5.15581 11.2206 5.21481 11.0856L5.26681 10.9676C5.34081 10.8126 5.42181 10.6506 5.50281 10.4966C5.67181 10.1966 5.85581 9.89658 6.05481 9.60558C6.38338 9.12036 6.75271 8.66404 7.15881 8.24158C7.76831 7.62432 8.45105 7.08397 9.19181 6.63258C9.96898 6.13959 10.8102 5.75567 11.6918 5.49158C11.9348 5.41758 12.1778 5.36658 12.4278 5.31458C12.972 5.19443 13.5275 5.13275 14.0848 5.13058H18.2848L19.2358 0.741577H15.0458C14.2628 0.745419 13.4817 0.819381 12.7118 0.962577Z" fill="white"/>
<path d="M99.9137 14.9906C99.7626 14.1909 99.4327 13.4358 98.9487 12.7816C98.4194 12.0963 97.7381 11.5434 96.9585 11.1665C96.179 10.7896 95.3225 10.5989 94.4567 10.6096H93.7567C93.4231 10.6099 93.0941 10.5322 92.796 10.3825C92.4979 10.2329 92.239 10.0155 92.04 9.7478C91.8411 9.48009 91.7075 9.1695 91.6502 8.84091C91.5928 8.51233 91.6132 8.17487 91.7097 7.85558C91.8982 7.09885 92.3248 6.42272 92.9267 5.92687C93.5286 5.43102 94.2739 5.1417 95.0527 5.10158H102.653L103.626 0.741577H96.0487C94.5306 0.801571 93.0501 1.23138 91.7359 1.99366C90.4217 2.75594 89.3135 3.82762 88.5077 5.11558C87.9601 5.95749 87.5663 6.88997 87.3447 7.86958C87.1324 8.77331 87.1123 9.71158 87.2857 10.6236C87.4358 11.4221 87.7628 12.1769 88.2427 12.8326C88.7686 13.5261 89.4494 14.0871 90.2308 14.4706C91.0121 14.8542 91.8723 15.0497 92.7427 15.0416H93.4427C93.7758 15.0427 94.104 15.1214 94.4013 15.2715C94.6986 15.4215 94.9569 15.6389 95.1556 15.9062C95.3543 16.1735 95.4879 16.4834 95.5459 16.8114C95.6039 17.1394 95.5847 17.4763 95.4897 17.7956C95.2963 18.5503 94.8684 19.2242 94.2677 19.7203C93.667 20.2164 92.9244 20.5092 92.1467 20.5566H84.5397L83.5747 24.9236H91.1517C92.6715 24.857 94.1521 24.4204 95.4649 23.6517C96.7777 22.883 97.883 21.8054 98.6847 20.5126C99.2324 19.6682 99.6262 18.7334 99.8477 17.7516C100.06 16.8478 100.08 15.9096 99.9067 14.9976L99.9137 14.9906Z" fill="white"/>
<path d="M116.755 14.9906C116.604 14.1909 116.274 13.4358 115.79 12.7816C115.26 12.0963 114.579 11.5434 113.799 11.1665C113.02 10.7896 112.163 10.5989 111.298 10.6096H110.598C110.264 10.6097 109.935 10.5319 109.636 10.3824C109.338 10.2328 109.079 10.0157 108.879 9.74818C108.68 9.48071 108.545 9.17031 108.487 8.84173C108.428 8.51315 108.447 8.17546 108.543 7.85558C108.737 7.10217 109.166 6.42982 109.766 5.93503C110.367 5.44025 111.109 5.14847 111.886 5.10158H119.493L120.465 0.741577H112.888C111.369 0.800973 109.889 1.23053 108.574 1.99287C107.26 2.7552 106.152 3.82721 105.347 5.11558C104.8 5.95873 104.403 6.89062 104.176 7.86958C103.968 8.7741 103.95 9.71186 104.124 10.6236C104.274 11.4221 104.601 12.1769 105.081 12.8326C105.605 13.5259 106.284 14.0868 107.064 14.4704C107.844 14.854 108.703 15.0496 109.573 15.0416H110.309C110.642 15.0427 110.97 15.1214 111.267 15.2715C111.565 15.4215 111.823 15.6389 112.021 15.9062C112.22 16.1735 112.354 16.4834 112.412 16.8114C112.47 17.1394 112.451 17.4763 112.356 17.7956C112.153 18.5455 111.718 19.2122 111.114 19.7002C110.51 20.1882 109.766 20.4726 108.991 20.5126H101.377L100.412 24.8796H107.989C109.506 24.8185 110.985 24.3889 112.299 23.6281C113.613 22.8672 114.722 21.7979 115.53 20.5126C116.077 19.6682 116.471 18.7334 116.693 17.7516C116.902 16.8475 116.922 15.9098 116.752 14.9976L116.755 14.9906Z" fill="white"/>
<path d="M62.602 0.741577L60.864 8.56958L59.185 16.1416C58.8846 17.3496 58.2018 18.4281 57.2383 19.2163C56.2749 20.0046 55.0826 20.4603 53.839 20.5156C53.2973 20.5384 52.758 20.4314 52.2661 20.2035C51.7742 19.9756 51.3439 19.6333 51.0112 19.2052C50.6785 18.7772 50.4529 18.2758 50.3534 17.7428C50.2539 17.2099 50.2832 16.6609 50.439 16.1416L52.118 8.57158L53.846 0.741577H49.472L46.063 16.1416C45.6705 17.5275 45.7196 19.0013 46.2035 20.358C46.6874 21.7147 47.5821 22.8869 48.763 23.7116C49.9881 24.5032 51.4206 24.9132 52.879 24.8896C54.4915 24.8665 56.0757 24.4621 57.502 23.7096C58.9958 22.957 60.3097 21.8912 61.3543 20.5849C62.3989 19.2785 63.1495 17.7623 63.555 16.1396L66.969 0.741577H62.602Z" fill="white"/>
<path d="M135.503 1.92757C134.282 1.13125 132.851 0.718532 131.394 0.742571C129.777 0.763018 128.189 1.16966 126.762 1.92857C125.267 2.68032 123.953 3.74585 122.908 5.05233C121.864 6.35881 121.113 7.87545 120.709 9.49857L117.3 24.8886H121.674L123.405 17.0686L123.869 14.9916H132.62L132.163 17.0686L130.425 24.8886H134.77L138.179 9.49857C138.582 8.11534 138.541 6.64043 138.06 5.28201C137.58 3.92359 136.686 2.75024 135.503 1.92757ZM124.825 10.6276L125.075 9.49357C125.382 8.29119 126.069 7.21996 127.034 6.43875C127.998 5.65753 129.189 5.20791 130.429 5.15657C130.97 5.1337 131.51 5.24071 132.002 5.46865C132.494 5.69659 132.924 6.03886 133.257 6.46691C133.589 6.89496 133.815 7.39637 133.914 7.92932C134.014 8.46226 133.985 9.01128 133.829 9.53057L133.579 10.6646L124.825 10.6276Z" fill="white"/>
<path d="M27.6016 24.6695L20.8706 16.0295H24.8326C24.9449 16.5017 25.1128 16.9589 25.3326 17.3915C25.6527 18.0082 26.0847 18.5599 26.6066 19.0185C27.1894 19.53 27.8698 19.9181 28.6066 20.1595C28.819 20.233 29.0353 20.2944 29.2546 20.3435L27.6016 24.6695Z" fill="white"/>
<path d="M24.6548 14.7335V15.1015C24.6448 15.232 24.665 15.3631 24.7138 15.4845L20.1558 15.1015L24.6548 14.7335Z" fill="white"/>
<path d="M27.3577 15.1305H20.1777V15.1375L27.5927 24.6665H27.5997L28.5997 20.1595L29.1877 17.4905L29.7107 15.1345L27.3577 15.1305Z" fill="#F8B100"/>
<path d="M153.877 19.6806C153.877 19.6959 153.877 19.7112 153.877 19.7266C153.877 20.2172 153.724 20.6159 153.417 20.9226C153.11 21.2292 152.704 21.3826 152.198 21.3826C151.677 21.3826 151.255 21.2292 150.933 20.9226C150.626 20.6006 150.473 20.1789 150.473 19.6576V19.6116C150.504 19.1362 150.672 18.7529 150.979 18.4616C151.301 18.1702 151.707 18.0246 152.198 18.0246C152.704 18.0246 153.11 18.1779 153.417 18.4846C153.724 18.7912 153.877 19.1899 153.877 19.6806ZM166.254 19.9336C165.165 21.0069 163.877 21.5436 162.39 21.5436C160.611 21.5436 159.2 20.9762 158.158 19.8416C157.253 18.8449 156.801 17.5952 156.801 16.0926C156.801 14.4059 157.383 13.0259 158.549 11.9526C159.561 11.0172 160.795 10.5496 162.252 10.5496C163.862 10.5496 165.157 11.0556 166.139 12.0676L165.265 13.6316C164.483 12.9416 163.632 12.5966 162.712 12.5966C161.853 12.5966 161.148 12.9339 160.596 13.6086C160.044 14.2679 159.768 15.1189 159.768 16.1616C159.768 17.1276 160.036 17.9249 160.573 18.5536C161.125 19.1669 161.822 19.4736 162.666 19.4736C163.678 19.4736 164.544 19.0979 165.265 18.3466L166.254 19.9336ZM172.96 10.5496C174.677 10.5496 176.011 11.1552 176.962 12.3666C177.759 13.3786 178.158 14.6129 178.158 16.0696C178.158 17.7716 177.567 19.1516 176.387 20.2096C175.405 21.0989 174.263 21.5436 172.96 21.5436C171.442 21.5436 170.169 20.9762 169.142 19.8416C168.222 18.8142 167.762 17.5569 167.762 16.0696C167.762 14.3829 168.275 13.0182 169.303 11.9756C170.238 11.0249 171.457 10.5496 172.96 10.5496ZM172.96 19.3816C174.447 19.3816 175.191 18.2776 175.191 16.0696C175.191 13.7696 174.447 12.6196 172.96 12.6196C171.472 12.6196 170.729 13.7696 170.729 16.0696C170.729 18.2776 171.472 19.3816 172.96 19.3816ZM183.386 11.8376C184.245 10.9789 185.318 10.5496 186.606 10.5496C187.495 10.5496 188.277 10.7412 188.952 11.1246C189.642 11.4926 190.117 11.9909 190.378 12.6196C190.715 12.0062 191.237 11.5079 191.942 11.1246C192.663 10.7412 193.445 10.5496 194.288 10.5496C196.741 10.5496 197.968 12.0369 197.968 15.0116V21.2676H195.047V15.7936C195.047 14.7662 194.894 14.0456 194.587 13.6316C194.296 13.2022 193.797 12.9876 193.092 12.9876C192.08 12.9876 191.26 13.3862 190.631 14.1836V21.2676H187.733V15.4716C187.733 14.5669 187.572 13.9306 187.25 13.5626C186.928 13.1792 186.376 12.9876 185.594 12.9876C185.134 12.9876 184.697 13.0566 184.283 13.1946C183.884 13.3326 183.624 13.5012 183.501 13.7006V21.2676H180.603V10.8256H183.064L183.271 11.8376H183.386Z" fill="#F8B100"/>
</svg>
