<svg width="104" height="35" viewBox="0 0 104 35" fill="none" xmlns="http://www.w3.org/2000/svg">
<path d="M43.993 20.1826H0V34.9736H43.993V20.1826Z" fill="#84B740"/>
<path d="M43.993 0H0V14.8041H43.993V0Z" fill="#259BD6"/>
<path d="M88.5367 31.9746L88.3407 32.0141C87.6615 32.146 87.4133 32.1987 86.917 32.1987C85.7675 32.1987 84.4091 31.6055 84.4091 28.8107C84.4091 27.3738 84.6442 25.4623 86.7864 25.4623H86.7994C87.1652 25.4887 87.5831 25.5282 88.3669 25.7655L88.5367 25.8183V31.9746ZM88.8893 18.0405L88.5367 18.1064V23.274L88.2232 23.1817L88.1318 23.1554C87.7791 23.0499 86.9692 22.8126 86.1855 22.8126C81.9012 22.8126 80.9999 26.0819 80.9999 28.8239C80.9999 32.581 83.0898 34.7429 86.7341 34.7429C88.2754 34.7429 89.4118 34.5847 90.5613 34.2024C91.6193 33.8597 91.9981 33.3719 91.9981 32.3305V17.5C90.9793 17.6846 89.9212 17.8691 88.8893 18.0405Z" fill="black"/>
<path d="M100.721 32.0603L100.538 32.113L99.8854 32.2844C99.2715 32.4426 98.7229 32.5348 98.3049 32.5348C97.2991 32.5348 96.6983 32.0339 96.6983 31.177C96.6983 30.6234 96.9464 29.6874 98.5923 29.6874H100.721V32.0603ZM99.2192 22.7401C97.9 22.7401 96.5415 22.9774 94.8565 23.5047L93.7593 23.8343L94.125 26.339L95.1961 25.9831C96.3195 25.6139 97.7171 25.3766 98.7621 25.3766C99.2323 25.3766 100.669 25.3766 100.669 26.9454V27.6309H98.6706C95.0263 27.6309 93.3413 28.8041 93.3413 31.322C93.3413 33.4708 94.8957 34.7627 97.5081 34.7627C98.318 34.7627 99.4413 34.6045 100.408 34.3672L100.46 34.354L100.512 34.3672L100.839 34.42C101.858 34.6045 102.916 34.7891 103.948 34.9868V26.7608C103.948 24.0979 102.354 22.7401 99.2192 22.7401Z" fill="black"/>
<path d="M75.3799 29.8202L75.1971 29.8729L74.544 30.0443C73.9301 30.2024 73.3945 30.2947 72.9635 30.2947C71.9577 30.2947 71.3568 29.7938 71.3568 28.9369C71.3568 28.3832 71.605 27.4473 73.2378 27.4473H75.3669L75.3799 29.8202ZM73.8909 20.5C72.5585 20.5 71.2131 20.7373 69.5281 21.2646L68.4309 21.5942L68.7967 24.0989L69.8677 23.7429C70.9911 23.3738 72.3887 23.1365 73.4337 23.1365C73.9039 23.1365 75.3407 23.1365 75.3407 24.7053V25.3908H73.3423C69.6979 25.3908 67.9999 26.564 67.9999 29.0819C67.9999 31.2307 69.5543 32.5226 72.1797 32.5226C72.9896 32.5226 74.1129 32.3644 75.0795 32.1271L75.1318 32.1139L75.184 32.1271L75.4975 32.1799C76.5294 32.3644 77.5744 32.549 78.6063 32.7599V24.5339C78.6193 21.8446 77.0258 20.5 73.8909 20.5Z" fill="black"/>
<path d="M61.5875 20.5132C59.9286 20.5132 58.5571 21.0669 58.0477 21.3041L57.9171 21.3701L57.7995 21.2778C57.0942 20.7637 56.0623 20.5 54.6255 20.5C53.3584 20.5 52.1698 20.6846 50.8766 21.0669C49.7664 21.4096 49.3353 21.9501 49.3353 22.9652V32.3644H52.8098V23.677L52.9796 23.6243C53.685 23.387 54.103 23.3475 54.5079 23.3475C55.5137 23.3475 56.0231 23.8879 56.0231 24.9426V32.3776H59.4453V24.7976C59.4453 24.3493 59.3539 24.0857 59.3409 24.033L59.2233 23.8089L59.4584 23.7034C59.9809 23.4661 60.5556 23.3475 61.1565 23.3475C61.8488 23.3475 62.6717 23.6243 62.6717 24.9426V32.3776H66.0809V24.5998C66.0809 21.8446 64.6179 20.5132 61.5875 20.5132Z" fill="black"/>
<path d="M99.2838 10.1497C98.7744 10.1497 97.9254 10.097 97.2592 9.96516L97.0633 9.92561V4.85028C97.0633 4.42844 96.9849 4.16478 96.9719 4.12524L96.8674 3.91431L97.0894 3.82203C97.1417 3.79567 97.1939 3.78249 97.2592 3.75612L97.2984 3.72976C97.3768 3.70339 97.4552 3.67702 97.5335 3.65066C97.5727 3.63748 97.5988 3.62429 97.625 3.62429C98.3956 3.41337 99.101 3.43974 99.4145 3.41337H99.4275C101.557 3.41337 101.805 5.32486 101.805 6.76177C101.792 9.5565 100.42 10.1497 99.2838 10.1497ZM99.2708 0.5C99.2447 0.5 99.2055 0.5 99.1793 0.5C97.1809 0.5 95.1301 1.05367 94.3986 2.13465C94.0068 2.66196 93.7847 3.32109 93.7717 4.09887V9.33239C93.7717 9.7806 93.6802 9.95198 93.6672 9.99153L93.5496 10.2156H87.2406V6.57721H87.2276C87.1492 2.74105 84.9025 0.631827 81.6501 0.631827H81.2713H78.476C78.3454 1.5678 78.2409 2.22693 78.1103 3.1629H81.2713C82.9302 3.1629 83.8053 4.58663 83.8053 6.77495V10.4397L83.5833 10.3211C83.5441 10.3079 83.2698 10.2156 82.8387 10.2156H77.3788C77.2743 10.9143 77.1437 11.8239 77 12.7335H93.7847C94.3595 12.6149 95.0256 12.5094 95.6003 12.4171C96.4494 12.839 98.0299 13.0631 99.114 13.0631C102.758 13.0631 105.123 10.5979 105.123 6.80132C105.11 3.04426 102.824 0.579096 99.2708 0.5Z" fill="black"/>
<path d="M68.7194 14.1309H68.8761C72.5205 14.1309 74.2185 12.9181 74.2185 9.92561C74.2185 7.77684 72.6641 6.06309 70.0517 6.06309H66.6948C65.689 6.06309 65.0881 5.48305 65.0881 4.50753C65.0881 3.8484 65.3363 3.03107 66.9821 3.03107H74.323C74.4798 2.06874 74.5581 1.46234 74.7018 0.5H67.0736C63.5207 0.5 61.7312 2.00282 61.7312 4.50753C61.7312 6.98588 63.2856 8.27778 65.898 8.27778H69.2549C70.2607 8.27778 70.8616 9.08192 70.8616 9.92561C70.8616 10.4793 70.6134 11.6262 68.9806 11.6262H68.419L57.6689 11.5998H55.7096C54.0507 11.5998 52.8882 10.6507 52.8882 8.44915V6.93314C52.8882 4.63936 53.7895 3.21563 55.7096 3.21563H58.8967C59.0404 2.24011 59.1319 1.62053 59.2625 0.69774H55.2916H54.9128C51.6604 0.69774 49.4137 2.89925 49.3353 6.7354V6.88041V8.44915C49.4137 12.2853 51.6604 14.1177 54.9128 14.1177H55.2916H58.0869L63.9126 14.1309H67.3871H68.7194Z" fill="black"/>
</svg>
