<svg width="48" height="41" viewBox="0 0 48 41" fill="none" xmlns="http://www.w3.org/2000/svg">
<path d="M6.40412 11.2772C4.55834 13.4781 0 15.6636 0 19.5957C0 22.1717 0.236183 25.0826 4.54653 27.3782C7.98536 29.2088 7.45159 33.5314 7.45159 33.5314C7.61574 36.6695 10.2858 37.8989 13.4589 38.1462C16.632 38.3935 18.7553 35.8187 21.3593 38.3012C23.9632 40.7838 28.6361 42.9871 32.0796 38.0255C34.8182 34.0804 35.6082 32.4238 40.7995 32.1872C47.343 31.889 48.3385 24.5644 45.5055 21.4192C45.3649 21.2618 45.2232 21.1115 45.0827 20.9672C42.4103 18.2089 40.5397 17.7297 40.8597 12.7811C41.3321 5.31453 38.5097 1.75991 34.6009 0.581351C30.3791 -0.693057 26.0085 3.46741 22.598 2.21785C18.9372 0.877175 16.2293 -1.19359 12.1611 0.877175C8.2865 2.84144 8.25107 9.07504 6.40412 11.2772Z" fill="#F8B100" fill-opacity="0.2"/>
<g clip-path="url(#clip0_1_1131)">
<path d="M44.0625 4.72501C43.6757 4.47477 43.2333 4.32338 42.7743 4.28414C42.3153 4.24491 41.8537 4.31904 41.43 4.50001L27.5475 9.96751C27.2192 10.1024 26.8675 10.1712 26.5125 10.17H17.625C16.8791 10.17 16.1637 10.4663 15.6363 10.9938C15.1088 11.5212 14.8125 12.2366 14.8125 12.9825V13.2075H12V19.9575H14.8125V20.25C14.8301 20.9842 15.1342 21.6823 15.6598 22.1953C16.1853 22.7082 16.8906 22.9952 17.625 22.995L21 30.15C21.2285 30.6318 21.5883 31.0394 22.0381 31.326C22.4878 31.6125 23.0092 31.7664 23.5425 31.77H24.96C25.702 31.7641 26.4116 31.4651 26.9342 30.9383C27.4568 30.4115 27.75 29.6995 27.75 28.9575V23.265L41.43 28.7325C41.7669 28.8649 42.1255 28.9335 42.4875 28.935C43.0491 28.9247 43.5959 28.7528 44.0625 28.44C44.4326 28.1901 44.7378 27.8557 44.953 27.4645C45.1682 27.0732 45.2872 26.6364 45.3 26.19V7.04251C45.2979 6.58467 45.1841 6.13425 44.9685 5.73038C44.7528 5.32651 44.4418 4.98139 44.0625 4.72501ZM24.9375 12.9825V20.25H17.625V12.9825H24.9375ZM24.9375 28.9575H23.52L20.7525 22.995H24.9375V28.9575ZM28.5825 20.5875C28.3153 20.4511 28.0368 20.3382 27.75 20.25V12.825C28.0339 12.766 28.3124 12.6832 28.5825 12.5775L42.4875 7.04251V26.1225L28.5825 20.5875ZM45.3675 13.77V19.395C46.1134 19.395 46.8288 19.0987 47.3562 18.5712C47.8837 18.0438 48.18 17.3284 48.18 16.5825C48.18 15.8366 47.8837 15.1212 47.3562 14.5938C46.8288 14.0663 46.1134 13.77 45.3675 13.77Z" fill="#F8B100"/>
</g>
<defs>
<clipPath id="clip0_1_1131">
<rect width="36" height="36" fill="white" transform="translate(12)"/>
</clipPath>
</defs>
</svg>
