<svg width="1440" height="436" viewBox="0 0 1440 436" fill="none" xmlns="http://www.w3.org/2000/svg">
<path d="M1209.01 0.000183105C1174.36 0.000183105 1141.02 22.1247 1128.11 54.4872C1123.66 65.6271 1121.07 78.3155 1118.55 90.5679C1113.09 117.278 1107.92 142.504 1085.26 152.381C1068.09 159.863 1050.05 153.739 1030.95 147.25C1015.73 142.073 999.994 136.726 984.349 138.575C969.937 140.274 957.193 147.871 947.491 160.545C932.849 179.677 925.978 209.609 929.997 236.81C932.563 254.169 937.885 271.268 943.026 287.81C949.917 309.949 957.058 332.85 957.394 356.223C957.769 380.868 944.991 408.089 926.324 422.406C917.544 429.141 903.453 436.137 886.189 431.226C858.968 423.473 846.099 392.138 845.448 364.506C845.102 350.174 847.107 335.642 849.051 321.585C850.965 307.759 852.94 293.467 852.709 279.255C852.248 250.586 839.119 217.723 810.83 208.933C783.269 200.364 755.767 218.795 741.821 230.536C736.138 235.322 730.616 240.524 725.284 245.57C712.916 257.211 700.128 269.243 684.773 276.64C663.27 286.988 632.722 285.204 620.855 264.272C609.43 244.132 622.113 219.016 628.091 209.148C631.168 204.077 634.606 199.056 637.978 194.2C645.921 182.674 654.135 170.757 658.023 157.052C663.601 137.508 658.685 115.799 644.538 97.4985C628.222 76.3912 602.855 63.6777 578.34 64.1989C528.002 65.3765 490.143 108.563 478.757 150.607C473.044 171.715 465.317 200.534 444.064 199.447C431.907 198.815 424.521 188.322 416.653 177.212C409.462 167.064 402.07 156.541 390.464 153.253C372.098 148.032 353.812 164.779 348.26 183.762C345.253 194.085 344.752 204.954 344.251 215.463C343.89 223.245 343.514 231.288 342.111 239.015C338.864 256.895 326.546 275.332 309.288 275.988C298.854 276.489 291.914 270.446 287.905 265.399C279.325 254.59 275.983 237.337 279.776 223.455C283.475 209.925 291.182 197.703 298.639 185.871C303.996 177.352 309.538 168.598 313.672 159.277C328.967 124.699 323.334 81.653 299.641 52.172C275.948 22.691 235.147 7.91791 198.079 15.4047C168.723 21.3329 143.752 39.4084 119.603 56.8875L115.479 59.8943C90.2472 78.065 63.0212 96.0151 31.9617 98.1349C2.39547 100.139 -32.653 81.0566 -35.6898 50.413L-38.6965 50.7087C-35.4443 83.5523 0.541313 103.271 32.1571 101.147C64.0134 98.9667 91.6403 80.766 117.213 62.3047L121.342 59.2979C145.225 42.0042 169.951 24.1242 198.645 18.3212C234.63 11.05 274.264 25.4021 297.266 54.0262C320.267 82.6502 325.744 124.469 310.891 158.044C306.882 167.159 301.37 175.844 296.078 184.248C288.506 196.275 280.673 208.662 276.86 222.634C272.766 237.622 276.249 255.547 285.534 267.233C291.904 275.251 300.152 279.26 309.393 278.96C329.117 278.213 341.71 257.988 345.068 239.516C346.501 231.614 346.882 223.48 347.253 215.588C347.754 205.255 348.23 194.571 351.151 184.593C356.298 167.019 372.99 151.399 389.637 156.135C400.221 159.141 407.317 169.209 414.192 178.936C422.105 190.146 430.288 201.737 443.909 202.443C467.547 203.696 475.685 173.479 481.648 151.439C492.748 110.437 529.541 68.3432 578.4 67.2107C601.983 66.6694 626.402 78.972 642.148 99.3476C655.678 116.887 660.424 137.608 655.112 156.22C651.338 169.455 643.265 181.166 635.458 192.491C632.09 197.382 628.602 202.443 625.48 207.585C619.221 217.903 605.982 244.227 618.194 265.755C630.928 288.2 663.33 290.31 686.046 279.351C701.821 271.754 714.78 259.556 727.313 247.78C732.625 242.769 738.123 237.612 743.74 232.877C757.215 221.526 783.725 203.711 809.888 211.829C836.759 220.183 849.226 251.754 849.672 279.316C849.898 293.302 847.939 307.479 846.039 321.189C844.085 335.361 842.03 350.019 842.406 364.591C843.098 393.326 856.643 425.969 885.342 434.137C899.955 438.301 914.758 435.074 928.138 424.811C947.822 409.712 960.781 382.136 960.39 356.188C960.024 332.389 952.838 309.278 945.858 286.928C940.746 270.501 935.459 253.513 932.929 236.384C929.025 209.95 935.66 180.905 949.837 162.389C959.027 150.362 971.069 143.186 984.65 141.582C999.648 139.828 1015.06 145.055 1029.96 150.101C1048.76 156.491 1068.2 163.09 1086.44 155.143C1110.54 144.619 1116.1 117.463 1121.48 91.1743C1123.99 79.0322 1126.54 66.479 1130.88 55.5947C1143.91 23.0218 1180.06 0.531342 1215.07 3.2374C1250.08 5.94345 1282.29 33.876 1290.05 68.1027C1291.9 76.2609 1292.64 85.0757 1293.36 93.5947C1294.86 111.635 1296.43 130.272 1308.61 143.792C1327 164.193 1360.67 161.171 1382.61 146.463C1402.07 133.434 1415.31 113.389 1428.11 93.9856C1429.82 91.3998 1431.53 88.8257 1433.24 86.2633C1447.18 65.4768 1464.73 43.0917 1489.33 34.6478C1537.14 18.2059 1584.65 59.2478 1610.82 99.3927C1616.89 108.699 1622.76 118.601 1628.45 128.172C1648.62 162.153 1669.47 197.292 1704.22 216.009L1705.65 213.353C1671.64 195.032 1651 160.264 1631.04 126.659C1625.34 117.057 1619.45 107.115 1613.35 97.764C1586.6 56.6771 1537.82 14.7582 1488.38 31.7613C1462.93 40.5209 1444.97 63.3721 1430.75 84.5745C1429.03 87.1403 1427.33 89.721 1425.61 92.3118C1412.97 111.45 1399.9 131.239 1380.94 143.952C1360.08 157.944 1328.16 160.951 1310.87 141.763C1299.34 129.004 1297.91 111.695 1296.37 93.3341C1295.65 84.7048 1294.9 75.7949 1293 67.4261C1284.84 31.3855 1252.16 3.12213 1215.33 0.225647C1213.22 0.0803223 1211.11 0.000183105 1209.01 0.000183105Z" fill="#003469"/>
</svg>
