<svg width="1440" height="508" viewBox="0 0 1440 508" fill="none" xmlns="http://www.w3.org/2000/svg">
<path d="M1141.03 6.10352e-05C1135.21 0.0222778 1129.4 0.672485 1123.71 1.93942C1104.12 6.20395 1086.46 19.5439 1075.25 38.5214C1064.05 57.4988 1060.92 79.433 1066.66 98.656C1070.1 110.152 1076.18 120.65 1082.1 130.803C1085.93 137.393 1089.9 144.208 1093.07 151.199C1100.55 167.736 1103.92 190.497 1090.91 204.934C1083.44 213.212 1072.74 216.6 1061.4 220.183C1051.99 223.16 1042.24 226.242 1034.44 232.4C1016.59 246.492 1013.98 271.142 1011.44 294.981C1008.7 320.718 1006.12 345.028 985.501 355.496C961.187 367.844 932.518 348.029 916.171 324.391C912.513 319.095 908.965 313.417 905.537 307.92C893.696 288.942 881.448 269.333 861.193 259.772C834.634 247.244 798.688 255.798 764.978 282.608C757.055 288.912 749.343 295.837 741.876 302.532C724.171 318.428 705.865 334.86 683.746 343.815C664.833 351.472 641.336 350.831 623.887 342.231C611.559 336.138 603.341 326.697 600.074 314.86C595.383 297.782 601.271 278.018 617.583 256.124C620.865 251.714 624.413 247.314 627.841 243.064C637.933 230.536 648.387 217.592 653.944 202.223C661.461 181.491 656.74 153.308 636.009 143.927C614.912 134.406 591.374 149.705 579.227 159.688C576.882 161.617 574.541 163.611 572.211 165.611C559.137 176.746 545.617 188.252 529.039 190.236C506.629 192.927 488.489 178.299 469.291 162.815C451.752 148.668 433.621 134.045 411.697 133.529C374.614 132.737 352.715 171.334 346.862 183.21C342.226 192.626 338.343 202.609 334.624 212.275C328.32 228.552 321.801 245.385 311.452 259.606C295.351 281.731 263.525 297 240.193 283.089C222.328 272.44 214.26 248.952 216.219 213.278L216.5 208.312C217.928 183.571 219.552 155.533 203.546 135.814C186.949 115.368 154.466 109.255 116.641 119.463C108.909 121.547 101.106 124.078 93.5345 126.523C72.1917 133.429 50.1323 140.555 27.8875 138.375C10.1528 136.631 -7.79234 125.271 -16.7674 110.107C-21.1472 102.715 -25.2264 91.2293 -19.8092 78.5359L-22.5855 77.3533C-27.1958 88.1575 -26.0532 100.33 -19.3582 111.635C-9.92211 127.581 8.95015 139.527 27.5919 141.367C50.4731 143.622 72.8432 136.38 94.4766 129.38C101.993 126.944 109.781 124.429 117.438 122.364C131.164 118.661 177.768 108.834 201.221 137.703C216.49 156.516 214.971 182.754 213.508 208.126L213.222 213.102C211.218 249.985 219.737 274.399 238.664 285.67C263.46 300.443 297.025 284.557 313.908 261.37C324.487 246.838 331.076 229.8 337.461 213.353C341.174 203.766 345.013 193.849 349.593 184.553C361.244 160.915 383.624 135.869 411.652 136.551C432.549 137.052 450.278 151.344 467.422 165.17C486.264 180.364 505.722 196.054 529.42 193.233C546.905 191.143 560.776 179.332 574.191 167.911C576.531 165.907 578.856 163.942 581.206 162.023C592.812 152.502 615.212 137.804 634.826 146.679C653.984 155.348 658.229 181.757 651.173 201.201C645.771 216.099 635.493 228.847 625.556 241.175C622.108 245.45 618.54 249.87 615.227 254.325C598.33 277.005 592.276 297.642 597.232 315.662C600.74 328.33 609.49 338.453 622.614 344.937C640.795 353.923 665.259 354.579 684.939 346.616C707.544 337.461 726.056 320.848 743.951 304.783C751.382 298.118 759.065 291.222 766.917 284.968C799.69 258.91 834.473 250.496 859.96 262.503C879.414 271.668 891.421 290.911 903.032 309.518C906.48 315.03 910.048 320.758 913.746 326.11C930.784 350.791 960.982 371.352 986.91 358.182C1008.96 346.972 1011.78 320.703 1014.47 295.301C1016.94 272.079 1019.48 248.071 1036.35 234.766C1043.72 228.948 1053.19 225.951 1062.35 223.055C1073.56 219.507 1085.17 215.838 1093.18 206.948C1107.17 191.414 1103.71 167.36 1095.85 149.956C1092.61 142.82 1088.61 135.924 1084.74 129.285C1078.93 119.262 1072.92 108.944 1069.58 97.794C1064.07 79.3828 1067.07 58.3407 1077.88 40.0648C1088.69 21.7889 1105.61 8.96515 1124.39 4.88101C1146.24 0.120331 1165.73 4.48514 1182.33 17.84C1209.69 39.8493 1221.99 81.0666 1222.03 112.151C1222.06 132.477 1215.48 152.787 1209.12 172.421C1201.99 194.471 1194.61 217.211 1197.04 239.391C1201.15 276.975 1234.74 307.293 1272.06 307.293H1272.63C1276.08 307.263 1279.65 307.007 1283.06 306.757C1293.19 306.025 1302.76 305.329 1311.05 309.804C1324.36 317.005 1328.01 335.11 1325.72 349.863C1324.53 357.536 1322.12 365.143 1319.79 372.489C1317.41 379.971 1314.96 387.708 1313.74 395.636C1310.41 417.224 1316.45 438.943 1331.21 458.447C1350.34 483.793 1382.19 501.984 1414.28 505.928C1470.54 512.858 1527.24 488.113 1572.8 468.233L1571.59 465.472C1526.37 485.201 1470.09 509.756 1414.65 502.941C1383.34 499.088 1352.27 481.343 1333.58 456.632C1319.32 437.795 1313.48 416.863 1316.68 396.097C1317.87 388.4 1320.29 380.778 1322.63 373.406C1324.99 365.949 1327.44 358.232 1328.66 350.329C1331.12 334.534 1327.05 315.055 1312.44 307.158C1303.39 302.262 1292.93 303.019 1282.81 303.755C1279.42 304.001 1275.93 304.256 1272.57 304.256H1272.03C1236.2 304.256 1203.95 275.121 1200 239.045C1197.64 217.497 1204.59 196.049 1211.95 173.333C1218.39 153.469 1225.04 132.933 1225.01 112.126C1224.96 80.325 1212.32 38.1054 1184.19 15.4697C1171.37 5.1817 1156.91 6.10352e-05 1141.03 6.10352e-05Z" fill="#FF4623"/>
</svg>
