<svg width="87" height="36" viewBox="0 0 87 36" fill="none" xmlns="http://www.w3.org/2000/svg">
<path d="M15.8965 4.64129C14.8769 5.85728 13.2455 6.81637 11.614 6.67935C11.4101 5.0352 12.2088 3.2883 13.1435 2.20932C14.1631 0.959086 15.9475 0.0685062 17.392 0C17.562 1.71265 16.8992 3.39106 15.8965 4.64129ZM17.375 7.00476C15.0128 6.86775 12.9905 8.35775 11.8689 8.35775C10.7303 8.35775 9.01392 7.07326 7.14456 7.10752C4.7144 7.14177 2.45418 8.52902 1.21361 10.7383C-1.33551 15.157 0.550839 21.6993 3.01499 25.2959C4.22157 27.0771 5.66607 29.0295 7.56942 28.961C9.3708 28.8925 10.0845 27.7793 12.2598 27.7793C14.452 27.7793 15.0808 28.961 16.9842 28.9267C18.9555 28.8925 20.1961 27.1456 21.4026 25.3644C22.7792 23.3435 23.34 21.3739 23.374 21.2712C23.34 21.2369 19.5673 19.7812 19.5333 15.3968C19.4993 11.7317 22.5073 9.98478 22.6432 9.88202C20.9438 7.34729 18.2927 7.07326 17.375 7.00476ZM31.0213 2.03806V28.7383H35.1339V19.6099H40.8269C46.0271 19.6099 49.6809 16.0133 49.6809 10.8069C49.6809 5.60038 46.0951 2.03806 40.9629 2.03806H31.0213ZM35.1339 5.53187H39.8753C43.444 5.53187 45.4833 7.45005 45.4833 10.824C45.4833 14.1979 43.444 16.1332 39.8583 16.1332H35.1339V5.53187ZM57.1923 28.9439C59.7754 28.9439 62.1716 27.6251 63.2592 25.5357H63.3442V28.7383H67.1508V15.4481C67.1508 11.5947 64.0919 9.11132 59.3845 9.11132C55.017 9.11132 51.7882 11.6289 51.6692 15.0885H55.3739C55.6798 13.4443 57.1923 12.3654 59.2656 12.3654C61.7807 12.3654 63.1912 13.5471 63.1912 15.7222V17.1951L58.059 17.5033C53.2836 17.7945 50.7005 19.764 50.7005 23.1893C50.7005 26.6489 53.3686 28.9439 57.1923 28.9439ZM58.2969 25.7755C56.1047 25.7755 54.7111 24.7136 54.7111 23.0866C54.7111 21.4082 56.0537 20.432 58.6198 20.2778L63.1912 19.9867V21.4938C63.1912 23.9943 61.0839 25.7755 58.2969 25.7755ZM72.2321 36C76.2427 36 78.1291 34.4586 79.7775 29.7831L87 9.36822H82.8194L77.9761 25.1418H77.8911L73.0478 9.36822H68.7483L75.7159 28.8069L75.342 29.9886C74.7132 31.9924 73.6936 32.7631 71.8752 32.7631C71.5523 32.7631 70.9236 32.7288 70.6686 32.6946V35.8972C70.9066 35.9657 71.9262 36 72.2321 36Z" fill="black"/>
</svg>
