<svg width="48" height="41" viewBox="0 0 48 41" fill="none" xmlns="http://www.w3.org/2000/svg">
<g clip-path="url(#clip0_1_1106)">
<path d="M29.8698 -0.0429808C29.8113 -0.0324068 29.7535 -0.0180694 29.6968 -5.76898e-05C29.3842 0.0700062 29.1055 0.246298 28.9084 0.498776C28.7112 0.751255 28.6076 1.0643 28.6154 1.38456V2.76917H16.1538C15.0522 2.76917 13.9956 3.20681 13.2166 3.98581C12.4376 4.7648 12 5.82135 12 6.92302V24.923C12 27.2159 13.8609 29.0769 16.1538 29.0769H28.6154V29.5961L21.0858 33.3609C20.7531 33.5215 20.4979 33.8078 20.3762 34.1566C20.2546 34.5055 20.2765 34.8884 20.4372 35.2211C20.5978 35.5538 20.8841 35.8091 21.2329 35.9307C21.5818 36.0524 21.9647 36.0304 22.2974 35.8698L28.6154 32.7115V33.2307C28.6154 33.5979 28.7613 33.9501 29.0209 34.2098C29.2806 34.4694 29.6328 34.6153 30 34.6153C30.3672 34.6153 30.7194 34.4694 30.9791 34.2098C31.2387 33.9501 31.3846 33.5979 31.3846 33.2307V32.7115L37.7026 35.8698C38.0353 36.0304 38.4182 36.0524 38.7671 35.9307C39.1159 35.8091 39.4022 35.5538 39.5628 35.2211C39.7235 34.8884 39.7454 34.5055 39.6238 34.1566C39.5021 33.8078 39.2469 33.5215 38.9142 33.3609L31.3846 29.5961V29.0769H43.8462C46.1391 29.0769 48 27.2159 48 24.923V6.92302C48 5.82135 47.5624 4.7648 46.7834 3.98581C46.0044 3.20681 44.9478 2.76917 43.8462 2.76917H31.3846V1.38456C31.3916 1.18766 31.3565 0.991542 31.2816 0.8093C31.2068 0.627058 31.0939 0.462891 30.9505 0.327766C30.8071 0.192642 30.6366 0.0896731 30.4502 0.0257382C30.2638 -0.0381966 30.066 -0.0616247 29.8698 -0.0429808ZM14.7692 6.92302H45.2308V24.923H14.7692V6.92302ZM40.9038 8.30763C40.5937 8.34098 40.3039 8.47808 40.0814 8.69671L35.5385 13.241L32.3802 10.0799C32.2289 9.92474 32.0433 9.80721 31.8384 9.73681C31.6334 9.66641 31.4148 9.6451 31.2001 9.67459C30.9854 9.70409 30.7806 9.78357 30.6022 9.90664C30.4239 10.0297 30.2769 10.1929 30.1731 10.3832L26.0622 17.5666L24.3743 13.3255C24.2923 13.1065 24.1563 12.9118 23.9788 12.7597C23.8012 12.6075 23.5881 12.5027 23.3592 12.4552C23.1302 12.4076 22.893 12.4188 22.6696 12.4877C22.4461 12.5566 22.2438 12.681 22.0814 12.8492L17.9275 17.003C17.7966 17.1338 17.6928 17.2892 17.6219 17.4601C17.551 17.6311 17.5145 17.8144 17.5144 17.9995C17.5143 18.1845 17.5507 18.3678 17.6215 18.5388C17.6923 18.7099 17.796 18.8653 17.9268 18.9962C18.0577 19.1271 18.213 19.231 18.384 19.3018C18.5549 19.3727 18.7382 19.4092 18.9233 19.4093C19.1084 19.4094 19.2916 19.373 19.4627 19.3022C19.6337 19.2314 19.7891 19.1277 19.92 18.9969L22.5591 16.3578L24.5502 21.2898C24.6441 21.5371 24.807 21.7524 25.0195 21.91C25.232 22.0677 25.4852 22.1612 25.7492 22.1794C26.0132 22.1976 26.2769 22.1398 26.509 22.0128C26.7411 21.8858 26.932 21.695 27.0591 21.4629L31.6892 13.3712L34.5443 16.2276C34.6734 16.3612 34.8281 16.4674 34.9991 16.54C35.1702 16.6125 35.3541 16.6499 35.5398 16.6499C35.7256 16.6499 35.9095 16.6125 36.0805 16.54C36.2516 16.4674 36.4063 16.3612 36.5354 16.2276L42.0738 10.6892C42.2926 10.4867 42.4401 10.219 42.4945 9.92596C42.549 9.63291 42.5074 9.33011 42.376 9.06259C42.2445 8.79506 42.0303 8.57709 41.7651 8.44107C41.4998 8.30506 41.1978 8.25826 40.9038 8.30763Z" fill="#0A3E6E"/>
</g>
<path d="M6.40412 11.2772C4.55834 13.4781 0 15.6636 0 19.5957C0 22.1717 0.236183 25.0826 4.54653 27.3782C7.98536 29.2088 7.45159 33.5314 7.45159 33.5314C7.61574 36.6695 10.2858 37.8989 13.4589 38.1462C16.632 38.3935 18.7553 35.8187 21.3593 38.3012C23.9632 40.7838 28.6361 42.9871 32.0796 38.0255C34.8182 34.0804 35.6082 32.4238 40.7995 32.1872C47.343 31.889 48.3385 24.5644 45.5055 21.4192C45.3649 21.2618 45.2232 21.1115 45.0827 20.9672C42.4103 18.2089 40.5397 17.7297 40.8597 12.7811C41.3321 5.31453 38.5097 1.75991 34.6009 0.581351C30.3791 -0.693057 26.0085 3.46741 22.598 2.21785C18.9372 0.877175 16.2293 -1.19359 12.1611 0.877175C8.2865 2.84144 8.25107 9.07504 6.40412 11.2772Z" fill="#0A3E6E" fill-opacity="0.2"/>
<defs>
<clipPath id="clip0_1_1106">
<rect width="36" height="36" fill="white" transform="translate(12)"/>
</clipPath>
</defs>
</svg>
