<svg width="112" height="40" viewBox="0 0 112 40" fill="none" xmlns="http://www.w3.org/2000/svg">
<path d="M8.04999 5.83501C9.15999 8.18501 7.81999 16.225 7.04999 22.315C6.60999 26.005 5.11999 29.785 10.2 29.205C13.2446 28.7336 16.2244 27.9115 19.08 26.755C42.08 18.045 68.75 4.86499 93.18 1.06499C107.87 -1.21501 114.77 -0.634987 110.84 10.905C109.68 14.285 102.28 20.975 102.28 28.555L100.96 28.455C100.96 21.455 105.35 14.325 105.08 12.645C104.76 10.645 102.08 10.985 91.93 12.645C67.23 16.645 45.2 26.645 21.93 35.505C13.93 38.505 1.04999 43.845 0.0399901 35.105C-0.69001 28.765 6.97999 13.175 6.60999 5.91499L8.04999 5.83501Z" fill="#0A3E6E"/>
</svg>
