<svg width="50" height="41" viewBox="0 0 50 41" fill="none" xmlns="http://www.w3.org/2000/svg">
<path d="M6.40412 11.2772C4.55834 13.4781 0 15.6636 0 19.5957C0 22.1717 0.236183 25.0826 4.54653 27.3782C7.98536 29.2088 7.45159 33.5314 7.45159 33.5314C7.61574 36.6695 10.2858 37.8989 13.4589 38.1462C16.632 38.3935 18.7553 35.8187 21.3593 38.3012C23.9632 40.7838 28.6361 42.9871 32.0796 38.0255C34.8182 34.0804 35.6082 32.4238 40.7995 32.1872C47.343 31.889 48.3385 24.5644 45.5055 21.4192C45.3649 21.2618 45.2232 21.1115 45.0827 20.9672C42.4103 18.2089 40.5397 17.7297 40.8597 12.7811C41.3321 5.31453 38.5097 1.75991 34.6009 0.581351C30.3791 -0.693057 26.0085 3.46741 22.598 2.21785C18.9372 0.877175 16.2293 -1.19359 12.1611 0.877175C8.2865 2.84144 8.25107 9.07504 6.40412 11.2772Z" fill="#0A3E6E" fill-opacity="0.2"/>
<path d="M26.5 24C27.2956 24 28.0587 23.6839 28.6213 23.1213C29.1839 22.5587 29.5 21.7956 29.5 21C29.5 20.2044 29.1839 19.4413 28.6213 18.8787C28.0587 18.3161 27.2956 18 26.5 18C25.7044 18 24.9413 18.3161 24.3787 18.8787C23.8161 19.4413 23.5 20.2044 23.5 21C23.5 21.7956 23.8161 22.5587 24.3787 23.1213C24.9413 23.6839 25.7044 24 26.5 24ZM41.5 24C42.2956 24 43.0587 23.6839 43.6213 23.1213C44.1839 22.5587 44.5 21.7956 44.5 21C44.5 20.2044 44.1839 19.4413 43.6213 18.8787C43.0587 18.3161 42.2956 18 41.5 18C40.7044 18 39.9413 18.3161 39.3787 18.8787C38.8161 19.4413 38.5 20.2044 38.5 21C38.5 21.7956 38.8161 22.5587 39.3787 23.1213C39.9413 23.6839 40.7044 24 41.5 24ZM34 16.5C34.7956 16.5 35.5587 16.1839 36.1213 15.6213C36.6839 15.0587 37 14.2956 37 13.5C37 12.7044 36.6839 11.9413 36.1213 11.3787C35.5587 10.8161 34.7956 10.5 34 10.5C33.2044 10.5 32.4413 10.8161 31.8787 11.3787C31.3161 11.9413 31 12.7044 31 13.5C31 14.2956 31.3161 15.0587 31.8787 15.6213C32.4413 16.1839 33.2044 16.5 34 16.5ZM34 31.5C34.7956 31.5 35.5587 31.1839 36.1213 30.6213C36.6839 30.0587 37 29.2956 37 28.5C37 27.7044 36.6839 26.9413 36.1213 26.3787C35.5587 25.8161 34.7956 25.5 34 25.5C33.2044 25.5 32.4413 25.8161 31.8787 26.3787C31.3161 26.9413 31 27.7044 31 28.5C31 29.2956 31.3161 30.0587 31.8787 30.6213C32.4413 31.1839 33.2044 31.5 34 31.5Z" stroke="#0A3E6E" stroke-width="2" stroke-linecap="round" stroke-linejoin="round"/>
<path d="M19 21C19 29.2845 25.7155 36 34 36C42.2845 36 49 29.2845 49 21C49 12.7155 42.2845 6 34 6C25.7155 6 19 12.7155 19 21ZM19 21V36" stroke="#0A3E6E" stroke-width="2" stroke-linecap="round" stroke-linejoin="round"/>
</svg>
