<svg width="47" height="47" viewBox="0 0 47 47" fill="none" xmlns="http://www.w3.org/2000/svg">
<path d="M40.7117 38.3655L24.0659 26.6155C23.7273 26.3762 23.2746 26.3762 22.936 26.6155L6.2902 38.3655C6.02977 38.549 5.87482 38.8478 5.875 39.1664V40.1456C5.87491 40.6864 6.31333 41.1248 6.85411 41.1248H40.1458C40.6866 41.1248 41.125 40.6864 41.125 40.1456V39.1664C41.1255 38.8482 40.9714 38.5494 40.7117 38.3655Z" fill="#CFD8DC"/>
<path d="M24.0659 26.6158L7.42013 14.8658C6.97886 14.5532 6.36768 14.6576 6.05511 15.0988C5.93752 15.2648 5.87454 15.4633 5.875 15.6667V39.1667C5.8739 39.7075 6.3115 40.1467 6.85227 40.1478C7.05569 40.1482 7.25416 40.0852 7.42013 39.9677L24.0659 28.2177C24.5077 27.9059 24.6131 27.295 24.3013 26.8531C24.2369 26.7618 24.1573 26.6822 24.0659 26.6178V26.6158Z" fill="#FAFAFA"/>
<path d="M40.5963 14.797C40.2708 14.6307 39.8801 14.657 39.58 14.8656L22.9342 26.6156C22.4923 26.9274 22.387 27.5383 22.6988 27.9802C22.7632 28.0715 22.8428 28.1511 22.9342 28.2155L39.58 39.9655C40.0212 40.2781 40.6324 40.1737 40.945 39.7325C41.0622 39.567 41.1251 39.3693 41.1251 39.1665V15.6665C41.1251 15.3006 40.9212 14.9653 40.5963 14.797Z" fill="#EEEEEE"/>
<path d="M43.0338 6.5487C42.9018 6.14672 42.5266 5.875 42.1036 5.875H4.89521C4.35444 5.875 3.91602 6.31342 3.91602 6.8542C3.91602 7.16236 4.06115 7.45262 4.30771 7.6375L22.9119 21.3458C23.2572 21.6001 23.7279 21.6001 24.0732 21.3458L42.6773 7.6375C43.0183 7.38919 43.1618 6.95049 43.0338 6.5487Z" fill="#ECEFF1"/>
<path d="M42.1042 5.875C41.8923 5.875 41.6862 5.94376 41.5167 6.0708L23.5 19.3464L5.4833 6.0708C5.31385 5.94376 5.10767 5.875 4.8958 5.875C2.19193 5.875 0 8.06693 0 10.7708V36.2291C0 38.9331 2.19193 41.125 4.8958 41.125H6.85411C7.39488 41.125 7.8333 40.6866 7.8333 40.1458V17.5564L22.934 28.2176C23.2726 28.4568 23.7253 28.4568 24.0639 28.2176L39.1666 17.5564V40.1458C39.1666 40.6866 39.605 41.125 40.1458 41.125H42.1041C44.8081 41.125 47 38.9331 47 36.2292V10.7708C47 8.06693 44.8081 5.875 42.1042 5.875Z" fill="#F44336"/>
</svg>
