<svg width="118" height="76" viewBox="0 0 118 76" fill="none" xmlns="http://www.w3.org/2000/svg">
<path fill-rule="evenodd" clip-rule="evenodd" d="M62.94 75.3999C72.94 62.7799 46.09 63.2299 46.56 60.7399C47.79 54.1399 61.56 47.9199 72.14 50.4899C70.45 43.2399 50.36 39.6599 39.23 43.9299L32.06 34.3199C49.06 14.1699 85.12 16.0299 105.67 29.8799C106.73 11.1999 36.2 -3.18011 1.34 20.8799L0 19.7799C24 0.159878 54.87 -0.870118 74 0.329882C89.73 1.32988 119.7 9.07989 117.52 23.4299L108.21 33.9699C93.49 27.4799 64.63 22.3599 40.52 40.3799C48.52 36.6999 77.59 30.1499 80.32 45.2699L74.01 53.0799C65.36 50.4699 51.01 56.2299 59.92 60.6999C62.8486 62.0203 65.377 64.0899 67.25 66.6999C68.98 69.5499 66.09 72.9699 62.94 75.3999Z" fill="#0A3E6E"/>
</svg>
