<svg width="50" height="41" viewBox="0 0 50 41" fill="none" xmlns="http://www.w3.org/2000/svg">
<path d="M6.40412 11.2772C4.55834 13.4781 0 15.6636 0 19.5957C0 22.1717 0.236183 25.0826 4.54653 27.3782C7.98536 29.2088 7.45159 33.5314 7.45159 33.5314C7.61574 36.6695 10.2858 37.8989 13.4589 38.1462C16.632 38.3935 18.7553 35.8187 21.3593 38.3012C23.9632 40.7838 28.6361 42.9871 32.0796 38.0255C34.8182 34.0804 35.6082 32.4238 40.7995 32.1872C47.343 31.889 48.3385 24.5644 45.5055 21.4192C45.3649 21.2618 45.2232 21.1115 45.0827 20.9672C42.4103 18.2089 40.5397 17.7297 40.8597 12.7811C41.3321 5.31453 38.5097 1.75991 34.6009 0.581351C30.3791 -0.693057 26.0085 3.46741 22.598 2.21785C18.9372 0.877175 16.2293 -1.19359 12.1611 0.877175C8.2865 2.84144 8.25107 9.07504 6.40412 11.2772Z" fill="#F8B100" fill-opacity="0.2"/>
<path d="M21.5 14L30.5 23M20 23L29 14L32 9.5M17 9.5H35M24.5 5H26M47 35L39.5 20L32 35M35 29H44" stroke="#F8B100" stroke-width="2.5" stroke-linecap="round" stroke-linejoin="round"/>
</svg>
