<svg width="201" height="37" viewBox="0 0 201 37" fill="none" xmlns="http://www.w3.org/2000/svg">
<g clip-path="url(#clip0_1_3254)">
<path d="M35.216 0.741499C28.551 0.741499 21.961 6.1465 20.488 12.8185C20.3213 13.5812 20.2275 14.358 20.208 15.1385L27.587 24.6595C28.3384 24.8123 29.1033 24.8887 29.87 24.8875C36.534 24.8875 43.125 19.4825 44.598 12.8185C46.071 6.1545 41.878 0.741499 35.216 0.741499ZM40.246 12.8185C39.7174 14.9452 38.5154 16.8439 36.8194 18.2316C35.1234 19.6193 33.0242 20.4215 30.835 20.5185C26.579 20.5185 23.898 17.0645 24.841 12.8185C25.3689 10.6935 26.5692 8.7959 28.263 7.40839C29.9569 6.02087 32.0537 5.2177 34.241 5.1185C38.492 5.1155 41.189 8.5615 40.246 12.8185Z" fill="white"/>
<path d="M82.0678 12.8185C82.8165 12.1816 83.4666 11.4371 83.9968 10.6095C84.5452 9.76431 84.938 8.82792 85.1569 7.8445C85.3666 6.94044 85.3867 6.00271 85.2159 5.0905C84.9566 3.8139 84.2475 2.67287 83.2177 1.87519C82.1878 1.07752 80.9057 0.676263 79.6049 0.744498H69.2289L68.2679 5.1155H78.6679C79.0071 5.10484 79.3441 5.17493 79.6509 5.31999C79.9578 5.46505 80.2258 5.68093 80.433 5.94985C80.6401 6.21877 80.7803 6.53304 80.8422 6.86679C80.9041 7.20053 80.8858 7.5442 80.7888 7.8695C80.5954 8.62421 80.1676 9.2981 79.5668 9.79424C78.9661 10.2904 78.2235 10.5832 77.4459 10.6305H67.0199L66.0479 14.9975H76.4529C76.7896 14.9879 77.124 15.0579 77.4286 15.2018C77.7333 15.3457 77.9998 15.5593 78.2064 15.8255C78.413 16.0916 78.5539 16.4027 78.6178 16.7335C78.6816 17.0644 78.6666 17.4056 78.5739 17.7295L77.1009 24.2685L76.9759 24.8205H81.3428L82.9258 17.6995C83.1334 16.7926 83.1511 15.8526 82.9779 14.9385C82.8283 14.1745 82.517 13.4513 82.0648 12.8175L82.0678 12.8185Z" fill="white"/>
<path d="M157.758 0.741499H140.136L139.164 5.1415H143.531L139.201 24.6705H143.601L147.92 5.1415H156.786L157.758 0.741499Z" fill="white"/>
<path d="M12.7118 0.962499C9.72472 1.55381 6.97124 2.99322 4.78081 5.1085C3.17327 6.62608 1.89925 8.46169 1.03981 10.4985C0.892812 10.8375 0.767812 11.1835 0.649812 11.5295C0.652869 11.5507 0.651131 11.5723 0.644727 11.5927C0.638323 11.6131 0.627417 11.6319 0.612812 11.6475C0.485411 12.0265 0.379575 12.4125 0.295812 12.8035C0.207812 13.2035 0.148812 13.5915 0.095812 13.9965V14.1145C0.0510041 14.4492 0.0229691 14.786 0.011812 15.1235C-0.0689064 17.0113 0.401932 18.8818 1.36681 20.5065C2.03116 21.5826 2.91368 22.5076 3.95745 23.2217C5.00123 23.9358 6.18309 24.4232 7.42681 24.6525C8.15426 24.7974 8.89406 24.8715 9.63581 24.8735H13.8358L14.8008 20.4995H10.6008C10.0696 20.498 9.54007 20.4383 9.02181 20.3215C8.80115 20.2682 8.58781 20.2082 8.38181 20.1415C7.6476 19.8942 6.96837 19.5067 6.38181 19.0005C5.88133 18.5375 5.4675 17.9889 5.15981 17.3805C4.94543 16.9462 4.78008 16.4894 4.66681 16.0185C4.59602 15.7221 4.54425 15.4215 4.51181 15.1185C4.51181 14.9635 4.51181 14.8095 4.51181 14.6475V13.5035C4.52546 13.2686 4.56743 13.0363 4.63681 12.8115C4.69581 12.5755 4.74681 12.3475 4.82081 12.1195C4.83866 12.0166 4.8724 11.9171 4.92081 11.8245C4.95781 11.7245 5.00181 11.5965 5.04581 11.4855C5.08981 11.3745 5.15581 11.2205 5.21481 11.0855L5.26681 10.9675C5.34081 10.8125 5.42181 10.6505 5.50281 10.4965C5.67181 10.1965 5.85581 9.8965 6.05481 9.6055C6.38338 9.12028 6.75271 8.66396 7.15881 8.2415C7.76831 7.62425 8.45105 7.0839 9.19181 6.6325C9.96898 6.13951 10.8102 5.75559 11.6918 5.4915C11.9348 5.4175 12.1778 5.3665 12.4278 5.3145C12.972 5.19436 13.5275 5.13267 14.0848 5.1305H18.2848L19.2358 0.741499H15.0458C14.2628 0.745341 13.4817 0.819303 12.7118 0.962499Z" fill="white"/>
<path d="M99.9142 14.9905C99.7631 14.1909 99.4332 13.4357 98.9492 12.7815C98.4199 12.0962 97.7386 11.5433 96.959 11.1664C96.1795 10.7895 95.323 10.5988 94.4572 10.6095H93.7572C93.4236 10.6099 93.0946 10.5321 92.7965 10.3825C92.4984 10.2328 92.2395 10.0154 92.0405 9.74772C91.8415 9.48001 91.708 9.16942 91.6507 8.84084C91.5933 8.51225 91.6137 8.17479 91.7102 7.8555C91.8987 7.09877 92.3253 6.42264 92.9272 5.92679C93.5291 5.43094 94.2744 5.14162 95.0532 5.1015H102.653L103.626 0.741499H96.0492C94.5311 0.801493 93.0506 1.2313 91.7364 1.99358C90.4222 2.75586 89.314 3.82754 88.5082 5.1155C87.9606 5.95741 87.5668 6.88989 87.3452 7.8695C87.1328 8.77323 87.1127 9.7115 87.2862 10.6235C87.4363 11.422 87.7633 12.1768 88.2432 12.8325C88.7691 13.5261 89.4499 14.087 90.2313 14.4706C91.0126 14.8541 91.8728 15.0496 92.7432 15.0415H93.4432C93.7763 15.0426 94.1045 15.1213 94.4018 15.2714C94.6991 15.4215 94.9574 15.6388 95.1561 15.9061C95.3548 16.1734 95.4884 16.4833 95.5464 16.8113C95.6044 17.1393 95.5852 17.4763 95.4902 17.7955C95.2968 18.5502 94.8689 19.2241 94.2682 19.7202C93.6675 20.2164 92.9249 20.5092 92.1472 20.5565H84.5402L83.5752 24.9235H91.1522C92.672 24.8569 94.1526 24.4204 95.4654 23.6516C96.7782 22.8829 97.8834 21.8054 98.6852 20.5125C99.2329 19.6681 99.6266 18.7333 99.8482 17.7515C100.061 16.8478 100.081 15.9095 99.9072 14.9975L99.9142 14.9905Z" fill="white"/>
<path d="M116.755 14.9905C116.604 14.1909 116.274 13.4357 115.79 12.7815C115.261 12.0962 114.579 11.5433 113.8 11.1664C113.02 10.7895 112.164 10.5988 111.298 10.6095H110.598C110.264 10.6096 109.935 10.5318 109.637 10.3823C109.339 10.2327 109.079 10.0156 108.88 9.7481C108.68 9.48063 108.546 9.17023 108.487 8.84165C108.429 8.51307 108.448 8.17538 108.543 7.8555C108.738 7.10209 109.166 6.42974 109.767 5.93495C110.367 5.44017 111.109 5.14839 111.886 5.1015H119.493L120.465 0.741499H112.888C111.37 0.800895 109.889 1.23045 108.575 1.99279C107.261 2.75512 106.152 3.82713 105.347 5.1155C104.8 5.95866 104.404 6.89054 104.176 7.8695C103.968 8.77402 103.951 9.71179 104.124 10.6235C104.274 11.422 104.601 12.1768 105.081 12.8325C105.605 13.5258 106.285 14.0868 107.065 14.4704C107.845 14.854 108.704 15.0496 109.573 15.0415H110.309C110.642 15.0426 110.97 15.1213 111.268 15.2714C111.565 15.4215 111.823 15.6388 112.022 15.9061C112.221 16.1734 112.354 16.4833 112.412 16.8113C112.47 17.1393 112.451 17.4763 112.356 17.7955C112.154 18.5455 111.719 19.2121 111.115 19.7001C110.51 20.1881 109.767 20.4725 108.991 20.5125H101.377L100.412 24.8795H107.989C109.506 24.8184 110.985 24.3889 112.299 23.628C113.613 22.8671 114.722 21.7979 115.53 20.5125C116.078 19.6681 116.472 18.7333 116.693 17.7515C116.903 16.8474 116.923 15.9097 116.752 14.9975L116.755 14.9905Z" fill="white"/>
<path d="M62.602 0.741499L60.864 8.5695L59.185 16.1415C58.8846 17.3495 58.2018 18.428 57.2383 19.2162C56.2749 20.0045 55.0826 20.4602 53.839 20.5155C53.2973 20.5384 52.758 20.4314 52.2661 20.2034C51.7742 19.9755 51.3439 19.6332 51.0112 19.2052C50.6785 18.7771 50.4529 18.2757 50.3534 17.7428C50.2539 17.2098 50.2832 16.6608 50.439 16.1415L52.118 8.5715L53.846 0.741499H49.472L46.063 16.1415C45.6705 17.5274 45.7196 19.0012 46.2035 20.3579C46.6874 21.7146 47.5821 22.8868 48.763 23.7115C49.9881 24.5031 51.4206 24.9131 52.879 24.8895C54.4915 24.8664 56.0757 24.462 57.502 23.7095C58.9958 22.9569 60.3097 21.8912 61.3543 20.5848C62.3989 19.2784 63.1495 17.7622 63.555 16.1395L66.969 0.741499H62.602Z" fill="white"/>
<path d="M135.503 1.9275C134.282 1.13117 132.851 0.71846 131.394 0.742498C129.777 0.762945 128.189 1.16958 126.762 1.9285C125.267 2.68024 123.953 3.74577 122.908 5.05226C121.864 6.35874 121.113 7.87537 120.709 9.4985L117.3 24.8885H121.674L123.405 17.0685L123.869 14.9915H132.62L132.163 17.0685L130.425 24.8885H134.77L138.179 9.4985C138.582 8.11527 138.541 6.64036 138.06 5.28194C137.58 3.92352 136.686 2.75017 135.503 1.9275ZM124.825 10.6275L125.075 9.4935C125.382 8.29111 126.069 7.21989 127.034 6.43867C127.998 5.65746 129.189 5.20784 130.429 5.1565C130.97 5.13363 131.51 5.24063 132.002 5.46857C132.494 5.69652 132.924 6.03879 133.257 6.46684C133.589 6.89489 133.815 7.3963 133.914 7.92924C134.014 8.46219 133.985 9.01121 133.829 9.5305L133.579 10.6645L124.825 10.6275Z" fill="white"/>
<path d="M27.6021 24.6695L20.8711 16.0295H24.8331C24.9454 16.5016 25.1133 16.9588 25.3331 17.3915C25.6532 18.0082 26.0852 18.5599 26.6071 19.0185C27.1899 19.5299 27.8702 19.9181 28.6071 20.1595C28.8195 20.2329 29.0358 20.2944 29.2551 20.3435L27.6021 24.6695Z" fill="white"/>
<path d="M24.6552 14.7335V15.1015C24.6453 15.232 24.6655 15.363 24.7142 15.4845L20.1562 15.1015L24.6552 14.7335Z" fill="white"/>
<path d="M27.3577 15.1305H20.1777V15.1375L27.5927 24.6665H27.5997L28.5997 20.1595L29.1877 17.4905L29.7107 15.1345L27.3577 15.1305Z" fill="#F8B100"/>
<path d="M153.877 19.6805C153.877 19.6958 153.877 19.7112 153.877 19.7265C153.877 20.2172 153.724 20.6158 153.417 20.9225C153.11 21.2292 152.704 21.3825 152.198 21.3825C151.677 21.3825 151.255 21.2292 150.933 20.9225C150.626 20.6005 150.473 20.1788 150.473 19.6575V19.6115C150.504 19.1362 150.672 18.7528 150.979 18.4615C151.301 18.1702 151.707 18.0245 152.198 18.0245C152.704 18.0245 153.11 18.1778 153.417 18.4845C153.724 18.7912 153.877 19.1898 153.877 19.6805ZM166.254 19.9335C165.165 21.0068 163.877 21.5435 162.39 21.5435C160.611 21.5435 159.2 20.9762 158.158 19.8415C157.253 18.8448 156.801 17.5952 156.801 16.0925C156.801 14.4058 157.383 13.0258 158.549 11.9525C159.561 11.0172 160.795 10.5495 162.252 10.5495C163.862 10.5495 165.157 11.0555 166.139 12.0675L165.265 13.6315C164.483 12.9415 163.632 12.5965 162.712 12.5965C161.853 12.5965 161.148 12.9338 160.596 13.6085C160.044 14.2678 159.768 15.1188 159.768 16.1615C159.768 17.1275 160.036 17.9248 160.573 18.5535C161.125 19.1668 161.822 19.4735 162.666 19.4735C163.678 19.4735 164.544 19.0978 165.265 18.3465L166.254 19.9335ZM172.96 10.5495C174.677 10.5495 176.011 11.1552 176.962 12.3665C177.759 13.3785 178.158 14.6128 178.158 16.0695C178.158 17.7715 177.567 19.1515 176.387 20.2095C175.405 21.0988 174.263 21.5435 172.96 21.5435C171.442 21.5435 170.169 20.9762 169.142 19.8415C168.222 18.8142 167.762 17.5568 167.762 16.0695C167.762 14.3828 168.275 13.0182 169.303 11.9755C170.238 11.0248 171.457 10.5495 172.96 10.5495ZM172.96 19.3815C174.447 19.3815 175.191 18.2775 175.191 16.0695C175.191 13.7695 174.447 12.6195 172.96 12.6195C171.472 12.6195 170.729 13.7695 170.729 16.0695C170.729 18.2775 171.472 19.3815 172.96 19.3815ZM183.386 11.8375C184.245 10.9788 185.318 10.5495 186.606 10.5495C187.495 10.5495 188.277 10.7412 188.952 11.1245C189.642 11.4925 190.117 11.9908 190.378 12.6195C190.715 12.0062 191.237 11.5078 191.942 11.1245C192.663 10.7412 193.445 10.5495 194.288 10.5495C196.741 10.5495 197.968 12.0368 197.968 15.0115V21.2675H195.047V15.7935C195.047 14.7662 194.894 14.0455 194.587 13.6315C194.296 13.2022 193.797 12.9875 193.092 12.9875C192.08 12.9875 191.26 13.3862 190.631 14.1835V21.2675H187.733V15.4715C187.733 14.5668 187.572 13.9305 187.25 13.5625C186.928 13.1792 186.376 12.9875 185.594 12.9875C185.134 12.9875 184.697 13.0565 184.283 13.1945C183.884 13.3325 183.624 13.5012 183.501 13.7005V21.2675H180.603V10.8255H183.064L183.271 11.8375H183.386Z" fill="#F8B100"/>
<path d="M35.216 3.008C28.551 3.008 21.961 8.413 20.488 15.085C20.3213 15.8477 20.2275 16.6245 20.208 17.405L27.587 26.926C28.3384 27.0788 29.1033 27.1552 29.87 27.154C36.534 27.154 43.125 21.749 44.598 15.085C46.071 8.421 41.878 3.008 35.216 3.008ZM40.246 15.085C39.7174 17.2117 38.5154 19.1104 36.8194 20.4981C35.1234 21.8858 33.0242 22.688 30.835 22.785C26.579 22.785 23.898 19.331 24.841 15.085C25.3689 12.96 26.5692 11.0624 28.263 9.67489C29.9569 8.28738 32.0537 7.4842 34.241 7.385C38.492 7.382 41.189 10.828 40.246 15.085Z" fill="#0A3E6E"/>
<path d="M82.0678 15.085C82.8165 14.4481 83.4666 13.7037 83.9968 12.876C84.5452 12.0308 84.938 11.0944 85.1569 10.111C85.3666 9.20694 85.3867 8.26922 85.2159 7.357C84.9566 6.0804 84.2475 4.93937 83.2177 4.1417C82.1878 3.34402 80.9057 2.94276 79.6049 3.011H69.2289L68.2679 7.382H78.6679C79.0071 7.37135 79.3441 7.44143 79.6509 7.58649C79.9578 7.73155 80.2258 7.94743 80.433 8.21635C80.6401 8.48527 80.7803 8.79955 80.8422 9.13329C80.9041 9.46704 80.8858 9.81071 80.7888 10.136C80.5954 10.8907 80.1676 11.5646 79.5668 12.0607C78.9661 12.5569 78.2235 12.8497 77.4459 12.897H67.0199L66.0479 17.264H76.4529C76.7896 17.2544 77.124 17.3244 77.4286 17.4683C77.7333 17.6122 77.9998 17.8258 78.2064 18.092C78.413 18.3581 78.5539 18.6692 78.6178 19C78.6816 19.3309 78.6666 19.6721 78.5739 19.996L77.1009 26.535L76.9759 27.087H81.3428L82.9258 19.966C83.1334 19.0591 83.1511 18.1191 82.9779 17.205C82.8283 16.441 82.517 15.7178 82.0648 15.084L82.0678 15.085Z" fill="#0A3E6E"/>
<path d="M157.758 3.008H140.136L139.164 7.408H143.531L139.201 26.937H143.601L147.92 7.408H156.786L157.758 3.008Z" fill="#0A3E6E"/>
<path d="M12.7118 3.229C9.72472 3.82031 6.97124 5.25972 4.78081 7.375C3.17327 8.89259 1.89925 10.7282 1.03981 12.765C0.892812 13.104 0.767812 13.45 0.649812 13.796C0.652869 13.8172 0.651131 13.8388 0.644727 13.8592C0.638323 13.8796 0.627417 13.8984 0.612812 13.914C0.485411 14.293 0.379575 14.679 0.295812 15.07C0.207812 15.47 0.148812 15.858 0.095812 16.263V16.381C0.0510041 16.7157 0.0229691 17.0525 0.011812 17.39C-0.0689064 19.2779 0.401932 21.1483 1.36681 22.773C2.03116 23.8491 2.91368 24.7741 3.95745 25.4882C5.00123 26.2023 6.18309 26.6897 7.42681 26.919C8.15426 27.0639 8.89406 27.138 9.63581 27.14H13.8358L14.8008 22.766H10.6008C10.0696 22.7645 9.54007 22.7048 9.02181 22.588C8.80115 22.5347 8.58781 22.4747 8.38181 22.408C7.6476 22.1607 6.96837 21.7732 6.38181 21.267C5.88133 20.804 5.4675 20.2554 5.15981 19.647C4.94543 19.2127 4.78008 18.7559 4.66681 18.285C4.59602 17.9886 4.54425 17.688 4.51181 17.385C4.51181 17.23 4.51181 17.076 4.51181 16.914V15.77C4.52546 15.5351 4.56743 15.3028 4.63681 15.078C4.69581 14.842 4.74681 14.614 4.82081 14.386C4.83866 14.2831 4.8724 14.1836 4.92081 14.091C4.95781 13.991 5.00181 13.863 5.04581 13.752C5.08981 13.641 5.15581 13.487 5.21481 13.352L5.26681 13.234C5.34081 13.079 5.42181 12.917 5.50281 12.763C5.67181 12.463 5.85581 12.163 6.05481 11.872C6.38338 11.3868 6.75271 10.9305 7.15881 10.508C7.76831 9.89075 8.45105 9.3504 9.19181 8.899C9.96898 8.40601 10.8102 8.02209 11.6918 7.758C11.9348 7.684 12.1778 7.633 12.4278 7.581C12.972 7.46086 13.5275 7.39917 14.0848 7.397H18.2848L19.2358 3.008H15.0458C14.2628 3.01184 13.4817 3.08581 12.7118 3.229Z" fill="#0A3E6E"/>
<path d="M99.9142 17.257C99.7631 16.4574 99.4332 15.7022 98.9492 15.048C98.4199 14.3627 97.7386 13.8098 96.959 13.4329C96.1795 13.056 95.323 12.8653 94.4572 12.876H93.7572C93.4236 12.8764 93.0946 12.7986 92.7965 12.649C92.4984 12.4993 92.2395 12.2819 92.0405 12.0142C91.8415 11.7465 91.708 11.4359 91.6507 11.1073C91.5933 10.7787 91.6137 10.4413 91.7102 10.122C91.8987 9.36528 92.3253 8.68914 92.9272 8.19329C93.5291 7.69744 94.2744 7.40812 95.0532 7.368H102.653L103.626 3.008H96.0492C94.5311 3.068 93.0506 3.49781 91.7364 4.26009C90.4222 5.02236 89.314 6.09405 88.5082 7.382C87.9606 8.22392 87.5668 9.15639 87.3452 10.136C87.1328 11.0397 87.1127 11.978 87.2862 12.89C87.4363 13.6885 87.7633 14.4433 88.2432 15.099C88.7691 15.7926 89.4499 16.3535 90.2313 16.7371C91.0126 17.1206 91.8728 17.3161 92.7432 17.308H93.4432C93.7763 17.3091 94.1045 17.3878 94.4018 17.5379C94.6991 17.688 94.9574 17.9053 95.1561 18.1726C95.3548 18.4399 95.4884 18.7498 95.5464 19.0778C95.6044 19.4058 95.5852 19.7428 95.4902 20.062C95.2968 20.8167 94.8689 21.4906 94.2682 21.9867C93.6675 22.4829 92.9249 22.7757 92.1472 22.823H84.5402L83.5752 27.19H91.1522C92.672 27.1234 94.1526 26.6869 95.4654 25.9181C96.7782 25.1494 97.8834 24.0719 98.6852 22.779C99.2329 21.9346 99.6266 20.9998 99.8482 20.018C100.061 19.1143 100.081 18.176 99.9072 17.264L99.9142 17.257Z" fill="#0A3E6E"/>
<path d="M116.755 17.257C116.604 16.4574 116.274 15.7022 115.79 15.048C115.261 14.3627 114.579 13.8098 113.8 13.4329C113.02 13.056 112.164 12.8653 111.298 12.876H110.598C110.264 12.8761 109.935 12.7983 109.637 12.6488C109.339 12.4992 109.079 12.2821 108.88 12.0146C108.68 11.7471 108.546 11.4367 108.487 11.1082C108.429 10.7796 108.448 10.4419 108.543 10.122C108.738 9.36859 109.166 8.69624 109.767 8.20146C110.367 7.70667 111.109 7.41489 111.886 7.368H119.493L120.465 3.008H112.888C111.37 3.0674 109.889 3.49696 108.575 4.25929C107.261 5.02163 106.152 6.09363 105.347 7.382C104.8 8.22516 104.404 9.15705 104.176 10.136C103.968 11.0405 103.951 11.9783 104.124 12.89C104.274 13.6885 104.601 14.4433 105.081 15.099C105.605 15.7923 106.285 16.3533 107.065 16.7369C107.845 17.1205 108.704 17.3161 109.573 17.308H110.309C110.642 17.3091 110.97 17.3878 111.268 17.5379C111.565 17.688 111.823 17.9053 112.022 18.1726C112.221 18.4399 112.354 18.7498 112.412 19.0778C112.47 19.4058 112.451 19.7428 112.356 20.062C112.154 20.812 111.719 21.4786 111.115 21.9666C110.51 22.4546 109.767 22.739 108.991 22.779H101.377L100.412 27.146H107.989C109.506 27.0849 110.985 26.6554 112.299 25.8945C113.613 25.1337 114.722 24.0644 115.53 22.779C116.078 21.9346 116.472 20.9998 116.693 20.018C116.903 19.1139 116.923 18.1762 116.752 17.264L116.755 17.257Z" fill="#0A3E6E"/>
<path d="M62.602 3.008L60.864 10.836L59.185 18.408C58.8846 19.616 58.2018 20.6945 57.2383 21.4827C56.2749 22.271 55.0826 22.7267 53.839 22.782C53.2973 22.8049 52.758 22.6979 52.2661 22.4699C51.7742 22.242 51.3439 21.8997 51.0112 21.4717C50.6785 21.0436 50.4529 20.5422 50.3534 20.0093C50.2539 19.4763 50.2832 18.9273 50.439 18.408L52.118 10.838L53.846 3.008H49.472L46.063 18.408C45.6705 19.7939 45.7196 21.2677 46.2035 22.6244C46.6874 23.9811 47.5821 25.1533 48.763 25.978C49.9881 26.7696 51.4206 27.1796 52.879 27.156C54.4915 27.1329 56.0757 26.7285 57.502 25.976C58.9958 25.2234 60.3097 24.1577 61.3543 22.8513C62.3989 21.5449 63.1495 20.0287 63.555 18.406L66.969 3.008H62.602Z" fill="#0A3E6E"/>
<path d="M135.503 4.194C134.282 3.39768 132.851 2.98496 131.394 3.009C129.777 3.02945 128.189 3.43609 126.762 4.195C125.267 4.94675 123.953 6.01228 122.908 7.31876C121.864 8.62524 121.113 10.1419 120.709 11.765L117.3 27.155H121.674L123.405 19.335L123.869 17.258H132.62L132.163 19.335L130.425 27.155H134.77L138.179 11.765C138.582 10.3818 138.541 8.90686 138.06 7.54844C137.58 6.19002 136.686 5.01667 135.503 4.194ZM124.825 12.894L125.075 11.76C125.382 10.5576 126.069 9.48639 127.034 8.70518C127.998 7.92396 129.189 7.47434 130.429 7.423C130.97 7.40013 131.51 7.50713 132.002 7.73508C132.494 7.96302 132.924 8.30529 133.257 8.73334C133.589 9.16139 133.815 9.6628 133.914 10.1957C134.014 10.7287 133.985 11.2777 133.829 11.797L133.579 12.931L124.825 12.894Z" fill="#0A3E6E"/>
<path d="M27.6021 26.936L20.8711 18.296H24.8331C24.9454 18.7681 25.1133 19.2253 25.3331 19.658C25.6532 20.2747 26.0852 20.8264 26.6071 21.285C27.1899 21.7964 27.8702 22.1846 28.6071 22.426C28.8195 22.4994 29.0358 22.5609 29.2551 22.61L27.6021 26.936Z" fill="white"/>
<path d="M24.6552 17V17.368C24.6453 17.4985 24.6655 17.6295 24.7142 17.751L20.1562 17.368L24.6552 17Z" fill="white"/>
<path d="M27.3577 17.397H20.1777V17.404L27.5927 26.933H27.5997L28.5997 22.426L29.1877 19.757L29.7107 17.401L27.3577 17.397Z" fill="#F8B100"/>
<path d="M153.877 21.947C153.877 21.9623 153.877 21.9777 153.877 21.993C153.877 22.4837 153.724 22.8823 153.417 23.189C153.11 23.4957 152.704 23.649 152.198 23.649C151.677 23.649 151.255 23.4957 150.933 23.189C150.626 22.867 150.473 22.4453 150.473 21.924V21.878C150.504 21.4027 150.672 21.0193 150.979 20.728C151.301 20.4367 151.707 20.291 152.198 20.291C152.704 20.291 153.11 20.4443 153.417 20.751C153.724 21.0577 153.877 21.4563 153.877 21.947ZM166.254 22.2C165.165 23.2733 163.877 23.81 162.39 23.81C160.611 23.81 159.2 23.2427 158.158 22.108C157.253 21.1113 156.801 19.8617 156.801 18.359C156.801 16.6723 157.383 15.2923 158.549 14.219C159.561 13.2837 160.795 12.816 162.252 12.816C163.862 12.816 165.157 13.322 166.139 14.334L165.265 15.898C164.483 15.208 163.632 14.863 162.712 14.863C161.853 14.863 161.148 15.2003 160.596 15.875C160.044 16.5343 159.768 17.3853 159.768 18.428C159.768 19.394 160.036 20.1913 160.573 20.82C161.125 21.4333 161.822 21.74 162.666 21.74C163.678 21.74 164.544 21.3643 165.265 20.613L166.254 22.2ZM172.96 12.816C174.677 12.816 176.011 13.4217 176.962 14.633C177.759 15.645 178.158 16.8793 178.158 18.336C178.158 20.038 177.567 21.418 176.387 22.476C175.405 23.3653 174.263 23.81 172.96 23.81C171.442 23.81 170.169 23.2427 169.142 22.108C168.222 21.0807 167.762 19.8233 167.762 18.336C167.762 16.6493 168.275 15.2847 169.303 14.242C170.238 13.2913 171.457 12.816 172.96 12.816ZM172.96 21.648C174.447 21.648 175.191 20.544 175.191 18.336C175.191 16.036 174.447 14.886 172.96 14.886C171.472 14.886 170.729 16.036 170.729 18.336C170.729 20.544 171.472 21.648 172.96 21.648ZM183.386 14.104C184.245 13.2453 185.318 12.816 186.606 12.816C187.495 12.816 188.277 13.0077 188.952 13.391C189.642 13.759 190.117 14.2573 190.378 14.886C190.715 14.2727 191.237 13.7743 191.942 13.391C192.663 13.0077 193.445 12.816 194.288 12.816C196.741 12.816 197.968 14.3033 197.968 17.278V23.534H195.047V18.06C195.047 17.0327 194.894 16.312 194.587 15.898C194.296 15.4687 193.797 15.254 193.092 15.254C192.08 15.254 191.26 15.6527 190.631 16.45V23.534H187.733V17.738C187.733 16.8333 187.572 16.197 187.25 15.829C186.928 15.4457 186.376 15.254 185.594 15.254C185.134 15.254 184.697 15.323 184.283 15.461C183.884 15.599 183.624 15.7677 183.501 15.967V23.534H180.603V13.092H183.064L183.271 14.104H183.386Z" fill="#F8B100"/>
</g>
<defs>
<clipPath id="clip0_1_3254">
<rect width="200.38" height="35.533" fill="white" transform="translate(0 0.733498)"/>
</clipPath>
</defs>
</svg>
