<svg width="208" height="119" viewBox="0 0 208 119" fill="none" xmlns="http://www.w3.org/2000/svg">
<g clip-path="url(#clip0_1_1192)">
<path d="M0.317749 102.687H207.682" stroke="#D8DBDE" stroke-width="2" stroke-linecap="round" stroke-linejoin="round"/>
<path d="M164.933 55.7819H161.845C161.634 55.7832 161.428 55.721 161.253 55.6035C161.078 55.486 160.944 55.3186 160.866 55.1234L160.739 54.8068C160.658 54.6138 160.637 54.4011 160.677 54.1959C160.718 53.9907 160.819 53.8022 160.968 53.6544L163.243 51.3909C163.441 51.1917 163.552 50.9226 163.552 50.6421C163.552 50.3617 163.441 50.0926 163.243 49.8934L158.89 45.5563C158.791 45.4578 158.674 45.3796 158.545 45.3263C158.416 45.273 158.278 45.2455 158.138 45.2455C157.999 45.2455 157.861 45.273 157.732 45.3263C157.603 45.3796 157.486 45.4578 157.387 45.5563L155.163 47.7723C155.008 47.9228 154.811 48.0235 154.598 48.0613C154.385 48.0991 154.166 48.0723 153.968 47.9844L153.781 47.9053C153.581 47.8276 153.408 47.6921 153.286 47.5161C153.164 47.3401 153.097 47.1316 153.095 46.9176V43.6599C153.095 43.5208 153.067 43.383 153.013 43.2546C152.96 43.1261 152.881 43.0094 152.783 42.9111C152.684 42.8129 152.566 42.7351 152.437 42.6821C152.308 42.6292 152.17 42.6021 152.03 42.6025H145.86C145.721 42.6025 145.583 42.6299 145.454 42.683C145.325 42.7362 145.208 42.8141 145.11 42.9122C145.011 43.0104 144.933 43.127 144.88 43.2553C144.826 43.3836 144.799 43.5211 144.799 43.6599V46.9366C144.796 47.1509 144.729 47.3594 144.607 47.5358C144.484 47.7122 144.312 47.8485 144.113 47.9275L144.008 47.9686C143.811 48.0556 143.592 48.0816 143.38 48.0432C143.168 48.0048 142.973 47.9038 142.819 47.7533L140.402 45.3473C140.303 45.2488 140.186 45.1707 140.057 45.1173C139.928 45.064 139.79 45.0366 139.65 45.0366C139.511 45.0366 139.372 45.064 139.243 45.1173C139.114 45.1707 138.997 45.2488 138.899 45.3473L134.546 49.6845C134.447 49.7827 134.369 49.8994 134.315 50.0279C134.262 50.1564 134.234 50.2941 134.234 50.4332C134.234 50.5723 134.262 50.71 134.315 50.8385C134.369 50.967 134.447 51.0837 134.546 51.1819L136.948 53.5753C137.099 53.7295 137.2 53.9253 137.239 54.1375C137.277 54.3496 137.251 54.5684 137.164 54.7656V54.7941C137.085 54.9924 136.949 55.1628 136.772 55.2835C136.595 55.4041 136.387 55.4696 136.173 55.4716H132.636C132.354 55.4716 132.083 55.5833 131.884 55.7822C131.684 55.9811 131.572 56.2509 131.572 56.5322V62.6643C131.572 62.8036 131.6 62.9415 131.653 63.0702C131.707 63.1989 131.785 63.3158 131.884 63.4143C131.983 63.5127 132.1 63.5909 132.229 63.6442C132.358 63.6975 132.497 63.7249 132.636 63.7249H136.055C136.272 63.7275 136.484 63.795 136.662 63.9186C136.841 64.0421 136.978 64.2162 137.056 64.4182C137.139 64.614 137.162 64.83 137.123 65.0389C137.083 65.2479 136.983 65.4405 136.834 65.5927L134.323 68.0906C134.125 68.2903 134.014 68.5599 134.014 68.8409C134.014 69.1218 134.125 69.3914 134.323 69.5912L138.676 73.9283C138.877 74.1259 139.147 74.2367 139.429 74.2367C139.711 74.2367 139.982 74.1259 140.182 73.9283L142.553 71.5635C142.709 71.4114 142.908 71.3103 143.124 71.2736C143.34 71.2368 143.561 71.2662 143.76 71.3577L143.82 71.383C144.016 71.4636 144.183 71.5995 144.302 71.774C144.42 71.9484 144.485 72.1537 144.487 72.3644V75.831C144.487 75.9701 144.514 76.108 144.567 76.2366C144.62 76.3653 144.699 76.4822 144.797 76.5807C144.896 76.6792 145.013 76.7574 145.142 76.8107C145.271 76.8641 145.409 76.8915 145.549 76.8915H151.706C151.988 76.8907 152.258 76.7786 152.457 76.5798C152.656 76.381 152.767 76.1117 152.767 75.831V72.6335C152.767 72.4217 152.83 72.2146 152.95 72.0395C153.07 71.8643 153.24 71.7293 153.438 71.6521L153.654 71.5666C153.846 71.4887 154.057 71.4691 154.261 71.5102C154.464 71.5513 154.651 71.6513 154.798 71.7977L157.165 74.1563C157.263 74.2548 157.38 74.3329 157.509 74.3862C157.638 74.4396 157.776 74.467 157.916 74.467C158.056 74.467 158.194 74.4396 158.323 74.3862C158.452 74.3329 158.569 74.2548 158.667 74.1563L163.02 69.8191C163.119 69.7209 163.197 69.6042 163.251 69.4757C163.304 69.3472 163.332 69.2095 163.332 69.0704C163.332 68.9313 163.304 68.7935 163.251 68.6651C163.197 68.5366 163.119 68.4199 163.02 68.3217L160.815 66.1246C160.664 65.9753 160.561 65.7836 160.522 65.575C160.482 65.3664 160.507 65.1506 160.593 64.9564C160.634 64.8614 160.675 64.7664 160.714 64.6715C160.796 64.4825 160.933 64.3217 161.106 64.2092C161.279 64.0967 161.482 64.0372 161.689 64.0383H164.93C165.212 64.0383 165.483 63.9266 165.682 63.7277C165.882 63.5288 165.994 63.259 165.994 62.9778V56.8392C165.993 56.5591 165.881 56.2906 165.682 56.0925C165.483 55.8944 165.214 55.7827 164.933 55.7819ZM148.786 65.8808C147.57 65.8814 146.38 65.5225 145.368 64.8494C144.356 64.1763 143.567 63.2193 143.101 62.0995C142.635 60.9796 142.513 59.7471 142.75 58.558C142.987 57.3689 143.572 56.2765 144.432 55.419C145.293 54.5616 146.389 53.9775 147.582 53.7408C148.775 53.504 150.012 53.6252 151.136 54.089C152.26 54.5528 153.221 55.3384 153.897 56.3464C154.573 57.3543 154.934 58.5395 154.934 59.7518C154.934 61.3768 154.287 62.9352 153.134 64.0845C151.981 65.2339 150.417 65.88 148.786 65.8808Z" fill="#D8DBDE"/>
<path d="M145.199 32.8013H62.801C60.6268 32.8013 58.8644 34.5574 58.8644 36.7237V91.8565C58.8644 94.0228 60.6268 95.7789 62.801 95.7789H145.199C147.373 95.7789 149.136 94.0228 149.136 91.8565V36.7237C149.136 34.5574 147.373 32.8013 145.199 32.8013Z" fill="#0E0F2D"/>
<g style="mix-blend-mode:multiply">
<path d="M58.8931 92.3281C59.0087 93.2792 59.4697 94.1553 60.189 94.791C60.9084 95.4267 61.8364 95.7781 62.7979 95.7789H145.186C146.148 95.7788 147.076 95.4276 147.796 94.7918C148.515 94.156 148.976 93.2795 149.091 92.3281H58.8931Z" fill="#E5E5E5"/>
</g>
<path d="M141.984 36.0049H66.0163C63.8422 36.0049 62.0797 37.761 62.0797 39.9273V87.3323C62.0797 89.4986 63.8422 91.2548 66.0163 91.2548H141.984C144.158 91.2548 145.92 89.4986 145.92 87.3323V39.9273C145.92 37.761 144.158 36.0049 141.984 36.0049Z" fill="#0A3E6E"/>
<path d="M74.9158 62.7469C74.9158 57.7228 78.8873 54.1992 84.3013 54.1992C87.5992 54.1992 90.1982 55.3674 91.8567 57.4727L88.2728 60.5783C87.2847 59.3627 86.106 58.6789 84.5904 58.6789C82.2329 58.6789 80.6443 60.2618 80.6443 62.7691C80.6443 65.2764 82.2329 66.8562 84.5904 66.8562C86.106 66.8562 87.2847 66.1565 88.2728 64.9408L91.8567 68.0497C90.1982 70.1518 87.5992 71.32 84.3013 71.32C78.8873 71.2946 74.9158 67.7553 74.9158 62.7469Z" fill="white"/>
<path d="M109.497 70.9115L109.449 63.456L105.789 69.4394H103.285L99.6282 63.7156V70.9115H94.4557V54.5537H99.1167L104.604 63.2692L109.945 54.5537H114.615L114.663 70.9115H109.497Z" fill="white"/>
<path d="M117.319 69.6041L119.133 65.5962C120.834 66.5446 122.744 67.058 124.693 67.0904C126.307 67.0904 126.882 66.7738 126.882 66.204C126.882 64.1462 117.57 65.8051 117.57 59.7077C117.57 56.6717 120.194 54.1929 125.415 54.1929C127.677 54.1929 130.012 54.6614 131.769 55.6207L130.06 59.6159C128.611 58.854 127.005 58.4378 125.367 58.4002C123.708 58.4002 123.178 58.8656 123.178 59.4291C123.178 61.3919 132.49 59.7457 132.49 65.7829C132.49 68.7746 129.869 71.2978 124.646 71.2978C121.843 71.2946 119.003 70.6077 117.319 69.6041Z" fill="white"/>
<path d="M113.017 73.6626H76.282V74.8878H113.017V73.6626Z" fill="#719BFF"/>
<path d="M121.576 73.6626H114.336V74.8878H121.576V73.6626Z" fill="#719BFF"/>
<path d="M129.659 73.6626H122.418V74.8878H129.659V73.6626Z" fill="white"/>
<path d="M121.576 78.332H114.336V79.5572H121.576V78.332Z" fill="#719BFF"/>
<path d="M121.573 80.7256H98.208V81.9508H121.573V80.7256Z" fill="#719BFF"/>
<path d="M129.659 78.332H122.418V79.5572H129.659V78.332Z" fill="white"/>
<path d="M121.576 75.999H84.8414V77.2242H121.576V75.999Z" fill="white"/>
<path d="M129.602 75.999H122.361V77.2242H129.602V75.999Z" fill="#719BFF"/>
<path d="M129.602 80.7256H122.361V81.9508H129.602V80.7256Z" fill="#719BFF"/>
<path d="M68.7042 42.2103C69.4728 42.2103 70.0959 41.5895 70.0959 40.8236C70.0959 40.0578 69.4728 39.437 68.7042 39.437C67.9357 39.437 67.3126 40.0578 67.3126 40.8236C67.3126 41.5895 67.9357 42.2103 68.7042 42.2103Z" fill="white"/>
<path d="M73.343 42.2103C74.1116 42.2103 74.7347 41.5895 74.7347 40.8236C74.7347 40.0578 74.1116 39.437 73.343 39.437C72.5745 39.437 71.9514 40.0578 71.9514 40.8236C71.9514 41.5895 72.5745 42.2103 73.343 42.2103Z" fill="white"/>
<path d="M77.9817 42.2103C78.7503 42.2103 79.3733 41.5895 79.3733 40.8236C79.3733 40.0578 78.7503 39.437 77.9817 39.437C77.2131 39.437 76.5901 40.0578 76.5901 40.8236C76.5901 41.5895 77.2131 42.2103 77.9817 42.2103Z" fill="white"/>
<path d="M64.6089 43.9038H142.4" stroke="white" stroke-width="0.97" stroke-miterlimit="10"/>
<path d="M153.009 102.636H54.9882C53.8816 102.64 52.8006 102.305 51.8914 101.676C50.9822 101.048 50.2887 100.156 49.9046 99.1219L48.119 94.3193H159.862L158.076 99.1219C157.693 100.153 157.002 101.043 156.096 101.672C155.19 102.3 154.113 102.636 153.009 102.636Z" fill="#D8DBDE"/>
<g style="mix-blend-mode:multiply">
<path d="M49.7871 98.7803L49.9174 99.1317C50.3014 100.166 50.9949 101.057 51.9041 101.686C52.8134 102.314 53.8944 102.649 55.0009 102.646H153.009C154.115 102.649 155.196 102.314 156.105 101.686C157.015 101.057 157.708 100.166 158.092 99.1317L158.223 98.7803H49.7871Z" fill="#E5E5E5"/>
</g>
<path d="M62.7692 60.1255H45.5518C41.6159 60.1255 38.4253 63.3047 38.4253 67.2264V76.2458C38.4253 80.1676 41.6159 83.3468 45.5518 83.3468H62.7692C66.705 83.3468 69.8957 80.1676 69.8957 76.2458V67.2264C69.8957 63.3047 66.705 60.1255 62.7692 60.1255Z" fill="white" stroke="#D8DBDE" stroke-width="2.88" stroke-miterlimit="10"/>
<path d="M61.743 71.9846L49.0277 65.3237V78.807L61.743 71.9846Z" fill="#0A3E6E"/>
<path d="M20.3864 38.5226L17.6705 38.3286L13.8567 91.3435L16.5726 91.5375L20.3864 38.5226Z" fill="#D8DBDE"/>
<path d="M59.2457 4.57812H47.8649V6.22752H59.2457V4.57812Z" fill="#D8DBDE"/>
<path d="M20.7631 38.3763L51.2867 2.46004L49.2914 0.946777L17.4811 38.3763H20.7631Z" fill="#D8DBDE"/>
<path d="M18.2468 90.0078H12.531V97.4H18.2468V90.0078Z" fill="#0E0F2D"/>
<g style="mix-blend-mode:multiply">
<path d="M18.2468 93.6069H12.531V97.4028H18.2468V93.6069Z" fill="#E5E5E5"/>
</g>
<path d="M32.4077 95.6523H12.1052C10.8453 95.6523 9.82397 96.67 9.82397 97.9254V100.373C9.82397 101.628 10.8453 102.646 12.1052 102.646H32.4077C33.6676 102.646 34.6889 101.628 34.6889 100.373V97.9254C34.6889 96.67 33.6676 95.6523 32.4077 95.6523Z" fill="#0E0F2D"/>
<g style="mix-blend-mode:multiply">
<path d="M9.83667 99.5998V100.375C9.83917 100.974 10.0785 101.547 10.5028 101.97C10.927 102.393 11.5017 102.633 12.102 102.636H32.3949C32.9994 102.636 33.5792 102.397 34.0069 101.971C34.4346 101.546 34.6753 100.968 34.6762 100.366V99.5903L9.83667 99.5998Z" fill="#E5E5E5"/>
</g>
<path d="M56.2877 0.0825195H61.6032C62.3877 0.0825195 63.1401 0.393046 63.6948 0.945787C64.2495 1.49853 64.5612 2.2482 64.5612 3.0299V12.0683H53.3297V3.02673C53.3306 2.24559 53.6426 1.49672 54.1972 0.944667C54.7518 0.392611 55.5037 0.0825191 56.2877 0.0825195Z" fill="#0A3E6E"/>
<g style="mix-blend-mode:multiply">
<path d="M64.558 7.27539H53.3297V12.0716H64.558V7.27539Z" fill="#E5E5E5"/>
</g>
<path d="M59.395 8.67139C61.0478 8.67097 62.6845 8.99504 64.2116 9.62508C65.7387 10.2551 67.1262 11.1788 68.2949 12.3433C69.4636 13.5078 70.3906 14.8903 71.0229 16.4119C71.6552 17.9335 71.9804 19.5643 71.98 21.2112V26.0549H46.8132V21.2112C46.8128 19.5646 47.1379 17.934 47.7701 16.4127C48.4022 14.8913 49.3289 13.5089 50.4972 12.3444C51.6656 11.1799 53.0528 10.2562 54.5795 9.62599C56.1062 8.99576 57.7425 8.67139 59.395 8.67139Z" fill="#0A3E6E"/>
<g style="mix-blend-mode:multiply">
<path d="M71.98 22.0596H46.8132V26.0548H71.98V22.0596Z" fill="#E5E5E5"/>
</g>
<path d="M73.8355 23.3574H44.9578V27.454H73.8355V23.3574Z" fill="#0E0F2D"/>
<path d="M19.3747 41.2479C21.3207 41.2479 22.8983 39.676 22.8983 37.737C22.8983 35.798 21.3207 34.2261 19.3747 34.2261C17.4287 34.2261 15.8512 35.798 15.8512 37.737C15.8512 39.676 17.4287 41.2479 19.3747 41.2479Z" fill="#0E0F2D"/>
<path d="M68.8028 108.278C69.8608 108.594 70.3437 109.262 70.3437 110.842V114.511C70.3437 115.587 70.8966 116.205 72.0245 116.205H72.428V119H71.0936C68.2182 119 66.7471 117.534 66.7471 114.9V110.75C66.7471 110.019 66.3563 109.674 65.7368 109.674H64.9774V106.878H65.7558C66.3754 106.878 66.7662 106.533 66.7662 105.802V101.655C66.7662 99.0175 68.2372 97.5391 71.1126 97.5391H72.428V100.334H72.015C70.8871 100.334 70.3342 100.968 70.3342 102.031V105.697C70.3437 107.29 69.8608 107.955 68.8028 108.278Z" fill="#0A3E6E"/>
<path d="M72.1865 112.495C72.1865 111.907 72.4208 111.343 72.8379 110.927C73.255 110.512 73.8207 110.278 74.4106 110.278C75.0004 110.278 75.5661 110.512 75.9832 110.927C76.4003 111.343 76.6346 111.907 76.6346 112.495C76.6346 113.082 76.4003 113.646 75.9832 114.062C75.5661 114.477 75.0004 114.711 74.4106 114.711C73.8207 114.711 73.255 114.477 72.8379 114.062C72.4208 113.646 72.1865 113.082 72.1865 112.495ZM78.3249 112.495C78.3249 111.905 78.5601 111.339 78.9787 110.922C79.3972 110.505 79.965 110.271 80.5569 110.271C81.1489 110.271 81.7166 110.505 82.1352 110.922C82.5538 111.339 82.7889 111.905 82.7889 112.495C82.7889 113.084 82.5538 113.65 82.1352 114.067C81.7166 114.484 81.1489 114.718 80.5569 114.718C79.965 114.718 79.3972 114.484 78.9787 114.067C78.5601 113.65 78.3249 113.084 78.3249 112.495ZM84.4887 112.495C84.4887 111.905 84.7239 111.339 85.1425 110.922C85.561 110.505 86.1288 110.271 86.7207 110.271C87.3127 110.271 87.8804 110.505 88.299 110.922C88.7176 111.339 88.9527 111.905 88.9527 112.495C88.9527 113.084 88.7176 113.65 88.299 114.067C87.8804 114.484 87.3127 114.718 86.7207 114.718C86.1288 114.718 85.561 114.484 85.1425 114.067C84.7239 113.65 84.4887 113.084 84.4887 112.495Z" fill="#0A3E6E"/>
<path d="M96.1746 106.878V109.674H95.4152C94.7798 109.674 94.4049 110.019 94.4049 110.75V114.9C94.4049 117.534 92.9306 119 90.0553 119H88.724V116.205H89.137C90.2649 116.205 90.8146 115.587 90.8146 114.511V110.842C90.8146 109.259 91.2975 108.597 92.3556 108.278C91.2975 107.961 90.8146 107.29 90.8146 105.71V102.044C90.8146 100.965 90.2649 100.347 89.137 100.347H88.724V97.5518H90.0553C92.9148 97.5518 94.4049 99.0175 94.4049 101.667V105.802C94.4049 106.533 94.7957 106.878 95.4152 106.878H96.1746Z" fill="#0A3E6E"/>
<path d="M156.199 81.8652H130.701V117.693H156.199V81.8652Z" fill="white" stroke="#D8DBDE" stroke-width="2.88" stroke-miterlimit="10"/>
<path d="M152.91 86.4683H133.92V87.3958H152.91V86.4683Z" fill="#0A3E6E"/>
<path d="M146.537 88.2031H133.92V89.1307H146.537V88.2031Z" fill="#0A3E6E"/>
<path d="M150.419 89.957H133.92V90.8846H150.419V89.957Z" fill="#0A3E6E"/>
<path d="M149.26 91.6792H133.92V92.6068H149.26V91.6792Z" fill="#0A3E6E"/>
<path d="M149.26 106.663H133.92V107.591H149.26V106.663Z" fill="#0A3E6E"/>
<path d="M145.062 108.458H133.92V109.386H145.062V108.458Z" fill="#0A3E6E"/>
<path d="M146.572 110.304H133.92V111.231H146.572V110.304Z" fill="#0A3E6E"/>
<path d="M141.307 0.316895H91.7994C90.4044 0.316895 89.2736 1.44372 89.2736 2.83372V6.76883C89.2736 8.15884 90.4044 9.28566 91.7994 9.28566H141.307C142.702 9.28566 143.833 8.15884 143.833 6.76883V2.83372C143.833 1.44372 142.702 0.316895 141.307 0.316895Z" fill="white" stroke="#D8DBDE" stroke-width="2" stroke-miterlimit="10"/>
<path d="M141.307 0.316895H127.762C127.031 0.316895 126.33 0.606408 125.812 1.12174C125.295 1.63708 125.005 2.33603 125.005 3.06483V6.54723C125.005 7.27602 125.295 7.97497 125.812 8.49031C126.33 9.00564 127.031 9.29516 127.762 9.29516H141.307C141.975 9.29102 142.615 9.02495 143.087 8.55453C143.56 8.08412 143.828 7.44717 143.833 6.7815V2.83372C143.829 2.1675 143.561 1.52974 143.088 1.05864C142.616 0.587542 141.976 0.321046 141.307 0.316895Z" fill="#0A3E6E"/>
<path d="M141.307 11.5015H91.7994C90.4044 11.5015 89.2736 12.6283 89.2736 14.0183V17.9534C89.2736 19.3434 90.4044 20.4702 91.7994 20.4702H141.307C142.702 20.4702 143.833 19.3434 143.833 17.9534V14.0183C143.833 12.6283 142.702 11.5015 141.307 11.5015Z" fill="white" stroke="#D8DBDE" stroke-width="2" stroke-miterlimit="10"/>
<path d="M141.307 11.5015H127.762C127.031 11.5015 126.33 11.791 125.812 12.3063C125.295 12.8217 125.005 13.5206 125.005 14.2494V17.7318C125.005 18.4609 125.295 19.1602 125.812 19.676C126.329 20.1918 127.031 20.4821 127.762 20.4829H141.307C141.976 20.4787 142.616 20.2122 143.088 19.7411C143.561 19.27 143.829 18.6323 143.833 17.9661V14.0183C143.829 13.3521 143.561 12.7143 143.088 12.2432C142.616 11.7721 141.976 11.5056 141.307 11.5015Z" fill="#0E0F2D"/>
<path d="M172.5 28.1422C174.389 16.4946 166.444 5.52638 154.755 3.64394C143.065 1.76151 132.057 9.6777 130.168 21.3253C128.279 32.9728 136.224 43.9411 147.913 45.8235C159.603 47.7059 170.61 39.7897 172.5 28.1422Z" fill="white" stroke="#D8DBDE" stroke-width="2.8882" stroke-miterlimit="10"/>
<path d="M139.334 25.8936L143.235 20.4927H147.093L143.305 25.8936L147.093 31.2755H143.235L139.334 25.8936Z" fill="#0A3E6E"/>
<path d="M154.629 12.1128H158.474L149.349 38.0725H145.504L154.629 12.1128Z" fill="#0A3E6E"/>
<path d="M156.456 31.2691L160.243 25.8872L156.456 20.4863H160.326L164.227 25.8872L160.326 31.2691H156.456Z" fill="#0A3E6E"/>
<path d="M196.241 43.6123H179.084C177.61 43.6123 176.195 44.196 175.153 45.235C174.11 46.274 173.524 47.6831 173.524 49.1525V51.3686C173.525 52.8377 174.111 54.2463 175.153 55.2851C176.196 56.324 177.61 56.9079 179.084 56.9088H186.671L190.621 63.978L194.977 56.9088H196.248C197.722 56.9088 199.136 56.3251 200.179 55.2861C201.222 54.2471 201.808 52.8379 201.808 51.3686V49.1525C201.808 48.4243 201.664 47.7032 201.385 47.0304C201.105 46.3576 200.695 45.7464 200.178 45.2318C199.661 44.7172 199.047 44.3093 198.371 44.0314C197.696 43.7535 196.972 43.6111 196.241 43.6123Z" fill="#0A3E6E"/>
<path d="M179.57 50.3303C179.57 49.7426 179.805 49.1789 180.222 48.7633C180.639 48.3477 181.205 48.1143 181.794 48.1143C182.384 48.1143 182.95 48.3477 183.367 48.7633C183.784 49.1789 184.018 49.7426 184.018 50.3303C184.018 50.9181 183.784 51.4817 183.367 51.8973C182.95 52.3129 182.384 52.5464 181.794 52.5464C181.205 52.5464 180.639 52.3129 180.222 51.8973C179.805 51.4817 179.57 50.9181 179.57 50.3303Z" fill="white"/>
<path d="M185.594 50.3304C185.594 49.7406 185.829 49.1749 186.248 48.7578C186.667 48.3408 187.234 48.1064 187.826 48.1064C188.418 48.1064 188.986 48.3408 189.404 48.7578C189.823 49.1749 190.058 49.7406 190.058 50.3304C190.058 50.9203 189.823 51.4859 189.404 51.903C188.986 52.3201 188.418 52.5544 187.826 52.5544C187.234 52.5544 186.667 52.3201 186.248 51.903C185.829 51.4859 185.594 50.9203 185.594 50.3304Z" fill="white"/>
<path d="M191.621 50.3303C191.621 49.7426 191.856 49.1789 192.273 48.7633C192.69 48.3477 193.256 48.1143 193.846 48.1143C194.435 48.1143 195.001 48.3477 195.418 48.7633C195.835 49.1789 196.07 49.7426 196.07 50.3303C196.07 50.9181 195.835 51.4817 195.418 51.8973C195.001 52.3129 194.435 52.5464 193.846 52.5464C193.256 52.5464 192.69 52.3129 192.273 51.8973C191.856 51.4817 191.621 50.9181 191.621 50.3303Z" fill="white"/>
<path d="M196.479 68.8091H178.852V74.5614H196.479V68.8091Z" fill="#D8DBDE"/>
<g style="mix-blend-mode:multiply">
<path d="M196.479 70.6802H178.852V74.5583H196.479V70.6802Z" fill="#E5E5E5"/>
</g>
<path d="M194.243 102.645H180.552L178.134 74.6943H197.194L194.243 102.645Z" fill="#0A3E6E"/>
<g style="mix-blend-mode:multiply">
<path d="M197.194 74.6943H178.134L178.757 79.174H196.435L197.194 74.6943Z" fill="#E5E5E5"/>
</g>
<path d="M199.946 71.418H175.383V77.1703H199.946V71.418Z" fill="#0E0F2D"/>
<path d="M191.7 92.5541C193.661 90.333 193.444 86.9483 191.214 84.9942C188.985 83.0402 185.588 83.2566 183.627 85.4778C181.666 87.6989 181.883 91.0836 184.113 93.0377C186.342 94.9917 189.739 94.7752 191.7 92.5541Z" fill="white"/>
</g>
<defs>
<clipPath id="clip0_1_1192">
<rect width="208" height="119" fill="white"/>
</clipPath>
</defs>
</svg>
