<svg width="32" height="32" viewBox="0 0 32 32" fill="none" xmlns="http://www.w3.org/2000/svg">
<path d="M7.5886 28.2638C11.4102 28.2638 14.5083 25.1655 14.5083 21.344C14.5083 17.5224 11.4102 14.4243 7.5886 14.4243C3.76698 14.4243 0.668945 17.5224 0.668945 21.344C0.668945 25.1655 3.76698 28.2638 7.5886 28.2638Z" fill="#F8B100"/>
<path d="M12.7462 3.77799C10.1401 4.34264 7.72783 5.58136 5.75045 7.37039C3.77308 9.15941 2.29985 11.4361 1.47803 13.9729C3.19347 12.5439 5.35597 11.7622 7.58862 11.7639C7.9729 11.7641 8.35682 11.7872 8.73835 11.8331C9.78337 9.73764 11.5747 8.10909 13.7599 7.26779C14.1105 7.13821 14.4134 6.90504 14.6283 6.59926C14.8433 6.29349 14.9601 5.92956 14.9634 5.55581C14.9627 5.28324 14.901 5.01424 14.7828 4.76864C14.6645 4.52306 14.4927 4.30706 14.2801 4.13654C14.0674 3.96604 13.8193 3.84531 13.5538 3.78326C13.2884 3.72121 13.0124 3.71941 12.7462 3.77799Z" fill="#F8B100"/>
<path d="M23.9563 28.2638C27.778 28.2638 30.876 25.1655 30.876 21.344C30.876 17.5224 27.778 14.4243 23.9563 14.4243C20.1346 14.4243 17.0366 17.5224 17.0366 21.344C17.0366 25.1655 20.1346 28.2638 23.9563 28.2638Z" fill="#F8B100"/>
<path d="M29.114 3.77799C26.5078 4.34264 24.0955 5.58136 22.1181 7.37039C20.1408 9.15941 18.6675 11.4361 17.8457 13.9729C19.5612 12.5439 21.7237 11.7622 23.9563 11.7639C24.3406 11.7641 24.7245 11.7872 25.106 11.8331C26.151 9.73764 27.9423 8.10909 30.1275 7.26779C30.4783 7.13821 30.781 6.90504 30.996 6.59926C31.211 6.29349 31.3278 5.92956 31.331 5.55581C31.3305 5.28324 31.2688 5.01424 31.1505 4.76864C31.0323 4.52306 30.8605 4.30706 30.6478 4.13654C30.435 3.96604 30.187 3.84531 29.9215 3.78326C29.656 3.72121 29.38 3.71941 29.114 3.77799Z" fill="#F8B100"/>
</svg>
