<svg width="51" height="41" viewBox="0 0 51 41" fill="none" xmlns="http://www.w3.org/2000/svg">
<path d="M6.40412 11.2772C4.55834 13.4781 0 15.6636 0 19.5957C0 22.1717 0.236183 25.0826 4.54653 27.3782C7.98536 29.2088 7.45159 33.5314 7.45159 33.5314C7.61574 36.6695 10.2858 37.8989 13.4589 38.1462C16.632 38.3935 18.7553 35.8187 21.3593 38.3012C23.9632 40.7838 28.6361 42.9871 32.0796 38.0255C34.8182 34.0804 35.6082 32.4238 40.7995 32.1872C47.343 31.889 48.3385 24.5644 45.5055 21.4192C45.3649 21.2618 45.2232 21.1115 45.0827 20.9672C42.4103 18.2089 40.5397 17.7297 40.8597 12.7811C41.3321 5.31453 38.5097 1.75991 34.6009 0.581351C30.3791 -0.693057 26.0085 3.46741 22.598 2.21785C18.9372 0.877175 16.2293 -1.19359 12.1611 0.877175C8.2865 2.84144 8.25107 9.07504 6.40412 11.2772Z" fill="#0A3E6E" fill-opacity="0.2"/>
<path d="M30 7.5L33 4.5M27 24L39 12M33 31.5L36 28.5M39.75 28.5C40.7446 28.5 41.6984 28.1049 42.4017 27.4017C43.1049 26.6984 43.5 25.7446 43.5 24.75C43.5 23.7554 43.1049 22.8016 42.4017 22.0983C41.6984 21.3951 40.7446 21 39.75 21C38.7554 21 37.8016 21.3951 37.0983 22.0983C36.3951 22.8016 36 23.7554 36 24.75C36 25.7446 36.3951 26.6984 37.0983 27.4017C37.8016 28.1049 38.7554 28.5 39.75 28.5ZM26.25 15C27.2446 15 28.1984 14.6049 28.9017 13.9017C29.6049 13.1984 30 12.2446 30 11.25C30 10.2554 29.6049 9.30161 28.9017 8.59835C28.1984 7.89509 27.2446 7.5 26.25 7.5C25.2554 7.5 24.3016 7.89509 23.5983 8.59835C22.8951 9.30161 22.5 10.2554 22.5 11.25C22.5 12.2446 22.8951 13.1984 23.5983 13.9017C24.3016 14.6049 25.2554 15 26.25 15ZM23.25 31.5C24.2446 31.5 25.1984 31.1049 25.9017 30.4017C26.6049 29.6984 27 28.7446 27 27.75C27 26.7554 26.6049 25.8016 25.9017 25.0983C25.1984 24.3951 24.2446 24 23.25 24C22.2554 24 21.3016 24.3951 20.5983 25.0983C19.8951 25.8016 19.5 26.7554 19.5 27.75C19.5 28.7446 19.8951 29.6984 20.5983 30.4017C21.3016 31.1049 22.2554 31.5 23.25 31.5ZM42.75 12C43.7446 12 44.6984 11.6049 45.4017 10.9017C46.1049 10.1984 46.5 9.24456 46.5 8.25C46.5 7.25544 46.1049 6.30161 45.4017 5.59835C44.6984 4.89509 43.7446 4.5 42.75 4.5C41.7554 4.5 40.8016 4.89509 40.0983 5.59835C39.3951 6.30161 39 7.25544 39 8.25C39 9.24456 39.3951 10.1984 40.0983 10.9017C40.8016 11.6049 41.7554 12 42.75 12Z" stroke="#0A3E6E" stroke-width="2.5" stroke-linecap="round" stroke-linejoin="round"/>
</svg>
